<?xml version="1.0" encoding="UTF-8" ?>
<!DOCTYPE svg PUBLIC "-//W3C//DTD SVG 1.1//EN" "http://www.w3.org/Graphics/SVG/1.1/DTD/svg11.dtd">
<svg width="77pt" height="93pt" viewBox="0 0 77 93" version="1.1" xmlns="http://www.w3.org/2000/svg">
<path fill="#30343F" d=" M 0.00 0.00 L 15.28 0.00 C 16.36 3.22 19.13 5.33 21.39 7.69 C 22.75 8.97 24.02 10.59 26.00 10.88 C 25.73 9.73 25.37 8.55 24.43 7.75 C 21.85 5.07 19.24 2.39 16.39 0.00 L 77.00 0.00 L 77.00 93.00 L 43.67 93.00 C 43.26 88.32 41.76 83.82 40.78 79.24 C 40.16 79.25 38.93 79.27 38.31 79.28 C 37.16 83.82 35.73 88.31 35.26 92.99 C 37.11 91.41 38.19 88.85 40.85 88.43 C 41.29 89.94 41.70 91.47 42.12 93.00 L 34.27 93.00 C 34.44 92.46 34.79 91.39 34.96 90.86 C 33.79 90.93 31.45 91.06 30.27 91.13 C 30.22 87.20 30.22 83.26 30.26 79.33 C 29.75 79.31 28.72 79.26 28.21 79.24 C 28.13 83.83 28.15 88.41 28.18 93.00 L 0.00 93.00 L 0.00 0.00 Z" />
<path fill="#8293A6" d=" M 15.28 0.00 L 16.39 0.00 C 19.24 2.39 21.85 5.07 24.43 7.75 C 25.37 8.55 25.73 9.73 26.00 10.88 C 24.02 10.59 22.75 8.97 21.39 7.69 C 19.13 5.33 16.36 3.22 15.28 0.00 Z" />
<path fill="#8293A6" d=" M 9.59 8.98 C 9.03 6.34 11.68 4.27 14.09 4.08 C 13.27 5.46 12.34 6.77 11.39 8.06 C 13.59 10.34 15.86 12.56 18.07 14.84 C 19.38 14.18 21.63 10.38 22.60 13.11 C 21.45 14.50 20.10 15.72 18.81 16.98 C 14.91 15.51 12.31 11.96 9.59 8.98 Z" />
<path fill="#8293A6" d=" M 5.09 10.87 C 7.14 11.66 8.42 13.56 9.99 15.00 C 11.75 16.93 14.02 18.50 15.17 20.92 C 12.90 22.65 11.69 18.42 9.53 18.06 C 8.94 18.54 7.77 19.51 7.18 19.99 C 8.83 21.61 10.50 23.25 11.53 25.35 C 10.97 25.22 9.85 24.96 9.29 24.82 C 6.38 22.37 3.74 19.59 1.18 16.77 C 1.11 16.27 0.96 15.25 0.89 14.75 C 3.08 15.36 4.37 17.36 6.01 18.76 C 6.63 18.19 7.86 17.06 8.47 16.49 C 7.37 14.67 3.62 13.22 5.09 10.87 Z" />
<path fill="#E6E8E6" d=" M 29.42 11.07 C 34.92 16.41 40.23 21.94 45.76 27.25 C 55.85 27.15 65.95 27.23 76.05 27.21 C 75.60 29.28 77.25 33.04 74.02 33.09 C 73.10 30.62 70.27 30.36 68.03 30.08 C 67.56 29.71 66.63 28.99 66.17 28.62 C 64.82 28.71 63.50 28.93 62.21 29.27 C 60.29 32.32 58.13 35.43 57.40 39.01 C 57.73 39.57 58.38 40.69 58.70 41.25 C 58.60 42.30 58.49 43.34 58.37 44.39 C 59.24 45.11 60.09 45.84 60.95 46.58 C 61.96 45.95 62.98 45.32 64.01 44.70 C 64.28 46.98 65.89 50.10 68.95 48.27 C 67.96 47.40 66.87 46.66 65.77 45.93 C 66.87 44.82 67.96 43.71 69.04 42.58 C 66.10 41.49 63.15 42.61 60.87 44.54 C 60.38 43.87 59.88 43.20 59.39 42.53 C 60.02 42.58 61.28 42.69 61.91 42.74 C 62.65 41.73 65.81 41.42 64.52 39.77 C 62.55 39.23 59.56 40.69 58.49 38.35 C 60.81 37.81 64.10 39.20 65.43 36.58 C 63.89 35.83 59.35 37.69 60.27 34.76 C 62.46 34.46 64.69 34.50 66.89 34.31 C 65.46 33.02 63.96 31.82 62.58 30.48 C 65.94 31.09 69.27 31.99 72.41 33.38 C 73.28 34.57 74.77 34.51 76.06 34.78 C 76.03 36.62 75.98 38.47 75.97 40.31 C 73.37 41.88 71.31 44.34 68.24 45.08 C 71.00 48.10 73.52 43.98 75.78 42.39 C 75.87 45.18 75.88 47.98 76.05 50.78 C 68.16 50.74 60.27 50.83 52.38 50.72 C 52.38 58.73 52.30 66.74 52.42 74.75 C 49.46 74.78 46.49 74.82 43.54 74.64 C 44.62 73.12 45.92 71.77 47.27 70.47 C 48.37 68.36 50.58 66.40 49.57 63.80 C 48.32 63.31 47.06 62.83 45.81 62.34 C 46.98 61.32 47.73 60.05 47.93 58.52 C 46.40 57.56 44.78 55.98 43.12 57.75 C 42.46 57.01 41.80 56.27 41.14 55.53 C 38.79 56.78 35.31 56.54 34.18 59.38 C 32.90 59.72 31.64 60.13 30.37 60.53 C 29.90 65.73 33.29 70.00 34.81 74.74 C 32.68 74.77 30.55 74.79 28.42 74.81 C 28.54 64.57 28.46 54.33 28.46 44.10 C 23.36 39.30 18.45 34.31 13.54 29.32 C 12.05 26.83 15.76 25.27 16.96 23.50 C 19.84 26.47 22.73 29.43 25.79 32.22 C 25.73 33.05 25.62 34.70 25.56 35.53 C 27.00 37.18 29.01 37.57 31.12 37.45 C 31.79 35.92 33.33 33.82 31.85 32.28 C 30.65 30.57 28.31 31.00 26.55 30.40 C 23.63 27.82 21.05 24.87 18.22 22.20 C 20.01 20.50 21.78 18.77 23.57 17.06 C 28.56 22.15 33.58 27.22 38.73 32.16 C 38.69 32.87 38.60 34.30 38.55 35.01 C 38.92 35.61 39.66 36.80 40.03 37.40 C 42.77 37.89 46.20 36.17 45.36 32.91 C 44.27 29.74 40.29 31.75 38.56 29.48 C 34.02 24.84 29.29 20.37 24.86 15.62 C 26.39 14.12 27.91 12.59 29.42 11.07 Z" />
<path fill="#E6E8E6" d=" M 28.50 32.68 C 30.89 31.61 31.60 36.29 28.98 35.75 C 27.27 36.08 26.55 32.94 28.50 32.68 Z" />
<path fill="#E6E8E6" d=" M 40.26 33.20 C 41.08 32.76 41.92 32.37 42.78 32.01 C 42.77 32.97 44.45 34.51 43.11 35.13 C 41.97 36.74 39.58 34.82 40.26 33.20 Z" />
<path fill="#E6E8E6" d=" M 39.80 56.69 C 42.28 58.59 41.06 61.83 41.60 64.46 C 43.36 62.57 43.53 59.29 46.20 58.37 C 45.06 61.42 43.08 64.27 43.50 67.70 C 45.12 66.62 46.69 65.43 48.46 64.60 C 46.94 67.66 45.10 70.64 42.39 72.81 C 42.38 73.40 42.37 74.60 42.37 75.20 C 40.43 75.20 38.48 75.21 36.54 75.23 C 36.24 72.62 35.19 70.21 33.98 67.90 C 33.48 65.97 32.87 64.07 32.32 62.15 C 32.83 62.21 33.84 62.32 34.34 62.37 C 34.10 63.90 34.71 64.97 36.17 65.56 C 36.53 63.20 35.66 60.47 36.89 58.33 C 38.67 59.36 37.38 61.90 37.77 63.54 C 38.20 63.62 39.06 63.76 39.49 63.84 C 39.50 61.45 39.50 59.06 39.80 56.69 Z" />
<path fill="#8293A6" d=" M 28.21 79.24 C 28.72 79.26 29.75 79.31 30.26 79.33 C 30.22 83.26 30.22 87.20 30.27 91.13 C 31.45 91.06 33.79 90.93 34.96 90.86 C 34.79 91.39 34.44 92.46 34.27 93.00 L 28.18 93.00 C 28.15 88.41 28.13 83.83 28.21 79.24 Z" />
<path fill="#8293A6" d=" M 38.31 79.28 C 38.93 79.27 40.16 79.25 40.78 79.24 C 41.76 83.82 43.26 88.32 43.67 93.00 L 42.12 93.00 C 41.70 91.47 41.29 89.94 40.85 88.43 C 38.19 88.85 37.11 91.41 35.26 92.99 C 35.73 88.31 37.16 83.82 38.31 79.28 Z" />
<path fill="#8293A6" d=" M 45.74 79.44 C 47.87 79.71 50.19 78.79 52.19 79.77 C 53.00 81.67 52.59 83.75 52.37 85.72 C 53.25 88.35 54.19 92.88 49.85 92.50 C 49.98 92.08 50.24 91.25 50.36 90.84 C 50.59 90.19 51.04 88.90 51.26 88.26 C 49.54 87.18 49.45 85.14 50.55 83.61 C 50.55 82.95 50.54 81.63 50.54 80.97 C 48.52 80.79 47.62 81.94 47.69 83.88 C 48.79 84.48 49.06 85.29 48.49 86.32 C 47.37 88.36 47.73 90.62 49.43 92.19 C 48.50 92.13 46.63 91.99 45.70 91.93 C 45.73 87.76 45.70 83.60 45.74 79.44 Z" />
<path fill="#30343F" d=" M 38.55 87.10 C 38.66 85.32 39.08 83.57 39.39 81.82 C 39.78 83.62 40.22 85.41 40.65 87.20 C 40.13 87.17 39.08 87.13 38.55 87.10 Z" />
</svg>
