<?xml version="1.0" encoding="UTF-8" ?>
<!DOCTYPE svg PUBLIC "-//W3C//DTD SVG 1.1//EN" "http://www.w3.org/Graphics/SVG/1.1/DTD/svg11.dtd">
<svg width="1544pt" height="488pt" viewBox="0 0 1544 488" version="1.1" xmlns="http://www.w3.org/2000/svg">
<path fill="#FFFFFF" d=" M 0.00 0.00 L 1544.00 0.00 L 1544.00 488.00 L 0.00 488.00 L 0.00 0.00 Z" />
<path fill="#000000" d=" M 1357.88 21.55 C 1367.08 21.43 1376.29 21.54 1385.50 21.46 C 1390.19 29.17 1395.32 36.60 1400.14 44.24 C 1393.97 44.31 1387.81 44.23 1381.66 44.28 C 1373.84 36.58 1365.75 29.18 1357.88 21.55 Z" />
<path fill="#020202" d=" M 227.08 45.16 C 237.70 44.33 248.36 44.38 258.99 44.93 C 293.92 48.02 328.16 59.97 356.95 80.09 C 360.63 83.16 365.02 85.29 368.43 88.70 C 372.92 93.23 378.15 96.93 382.70 101.38 C 403.50 121.40 419.73 146.03 430.29 172.88 C 438.08 194.04 443.08 216.39 443.72 238.97 C 444.50 266.88 439.00 294.79 428.77 320.73 C 422.30 335.03 415.37 349.26 405.89 361.85 C 395.32 377.31 382.02 390.67 367.62 402.56 C 343.67 420.88 315.96 434.58 286.49 441.23 C 276.78 443.44 266.96 445.58 256.96 445.70 C 244.01 447.76 230.84 446.45 217.83 445.71 C 210.42 444.18 202.78 443.93 195.53 441.63 C 178.49 437.86 161.92 431.86 146.66 423.36 C 138.14 419.26 130.57 413.55 122.64 408.46 C 92.40 385.91 68.28 355.03 54.42 319.89 C 46.48 300.17 42.46 279.06 40.78 257.92 C 40.71 248.64 39.69 239.30 41.15 230.08 C 41.87 223.76 42.39 217.41 43.35 211.11 C 44.94 204.14 46.49 197.15 48.21 190.20 C 52.38 177.28 56.74 164.28 63.50 152.44 C 68.37 142.42 74.89 133.32 81.15 124.15 C 84.33 120.64 87.33 116.97 90.25 113.25 C 105.26 96.69 122.60 82.15 142.01 71.01 C 167.93 56.14 197.16 46.70 227.08 45.16 Z" />
<path fill="#FFFFFF" d=" M 222.57 48.69 C 242.75 46.63 263.25 47.70 282.93 52.74 C 291.57 54.20 300.15 56.26 308.17 59.89 C 321.62 63.45 333.15 71.48 345.54 77.50 C 357.26 84.42 367.40 93.61 377.56 102.58 C 403.83 127.94 424.32 160.11 432.74 195.89 C 437.77 213.11 439.01 231.20 439.20 249.06 C 438.96 263.13 436.98 277.13 433.92 290.86 C 428.57 310.86 421.05 330.39 409.98 347.97 C 397.66 367.93 382.35 386.33 363.48 400.42 C 353.90 408.64 342.55 414.40 331.71 420.73 C 323.83 424.33 316.11 428.35 307.86 431.08 C 300.61 433.02 293.52 435.52 286.22 437.28 C 271.72 440.49 256.90 442.47 242.03 442.23 C 201.56 443.27 160.85 430.76 128.03 407.06 C 118.18 400.35 109.00 392.64 100.58 384.19 C 93.92 376.69 87.34 369.09 81.44 360.97 C 72.09 346.90 63.55 332.15 57.68 316.26 C 48.02 291.45 44.60 264.53 45.25 238.02 C 46.36 210.98 53.06 184.19 64.75 159.78 C 69.72 150.54 74.27 140.99 80.62 132.58 C 87.42 124.12 93.41 114.91 101.42 107.50 C 117.20 91.31 135.91 78.15 155.89 67.71 C 159.35 66.18 162.85 64.78 166.18 62.98 C 177.81 58.15 189.90 54.51 202.16 51.65 C 209.00 50.94 215.74 49.50 222.57 48.69 Z" />
<path fill="#000000" d=" M 1102.14 59.96 C 1110.92 51.74 1123.33 48.83 1135.03 48.27 C 1147.17 48.01 1160.01 50.64 1169.52 58.62 C 1176.84 64.54 1180.44 74.00 1180.47 83.27 C 1171.12 83.21 1161.78 83.27 1152.43 83.25 C 1151.98 80.25 1151.56 76.94 1149.18 74.79 C 1145.07 71.09 1139.23 70.10 1133.88 70.27 C 1130.28 70.47 1126.40 71.19 1123.70 73.75 C 1120.96 76.25 1120.54 81.07 1123.33 83.70 C 1127.41 87.22 1132.87 88.32 1137.94 89.67 C 1149.66 92.62 1162.06 94.76 1172.19 101.77 C 1178.57 106.01 1183.00 113.13 1183.68 120.80 C 1184.50 129.62 1182.83 139.16 1177.01 146.11 C 1170.85 153.74 1161.29 157.78 1151.84 159.46 C 1140.03 161.52 1127.67 161.33 1116.15 157.82 C 1107.58 155.14 1099.51 149.83 1094.91 141.97 C 1091.30 136.00 1090.06 128.95 1089.83 122.07 C 1099.26 121.88 1108.69 122.10 1118.13 121.97 C 1118.42 126.10 1119.30 130.52 1122.34 133.56 C 1126.57 138.07 1133.20 138.74 1139.04 138.76 C 1144.62 138.64 1151.14 137.44 1154.42 132.41 C 1156.77 129.02 1155.71 124.13 1152.51 121.67 C 1147.66 118.02 1141.55 116.84 1135.82 115.26 C 1124.35 112.22 1112.10 109.81 1102.65 102.16 C 1089.89 92.10 1090.14 70.51 1102.14 59.96 Z" />
<path fill="#000000" d=" M 514.03 50.50 C 523.43 50.54 532.84 50.50 542.24 50.52 C 542.26 72.36 542.22 94.21 542.26 116.06 C 542.31 121.63 543.19 127.67 547.24 131.84 C 551.66 136.00 558.14 136.65 563.93 136.17 C 568.12 135.88 572.46 134.43 575.34 131.24 C 578.85 127.05 579.77 121.37 579.75 116.05 C 579.76 94.20 579.75 72.34 579.75 50.48 C 589.17 50.54 598.58 50.51 608.00 50.51 C 608.00 72.35 608.02 94.18 607.99 116.02 C 607.78 127.69 605.24 140.14 596.97 148.89 C 588.72 157.43 576.42 160.20 564.95 160.67 C 553.16 161.07 540.63 159.89 530.47 153.37 C 522.97 148.58 518.21 140.48 516.03 132.00 C 513.47 122.21 514.05 112.02 514.00 102.00 C 514.02 84.83 513.96 67.66 514.03 50.50 Z" />
<path fill="#000000" d=" M 626.27 50.49 C 635.93 50.53 645.59 50.51 655.25 50.51 C 667.77 72.76 680.41 94.93 692.96 117.15 C 693.09 94.93 692.90 72.70 693.05 50.48 C 701.87 50.55 710.70 50.48 719.52 50.52 C 719.48 86.51 719.50 122.50 719.52 158.49 C 709.79 158.51 700.07 158.50 690.35 158.50 C 677.96 136.05 665.42 113.68 652.79 91.37 C 652.66 113.75 652.78 136.13 652.73 158.50 C 643.89 158.49 635.06 158.53 626.23 158.49 C 626.28 122.49 626.21 86.49 626.27 50.49 Z" />
<path fill="#000000" d=" M 738.51 50.49 C 747.91 50.52 757.32 50.52 766.72 50.51 C 766.77 86.51 766.80 122.51 766.71 158.51 C 757.31 158.48 747.91 158.52 738.51 158.50 C 738.51 122.50 738.50 86.50 738.51 50.49 Z" />
<path fill="#000000" d=" M 846.41 50.49 C 856.26 50.52 866.11 50.56 875.96 50.45 C 864.50 86.52 852.65 122.48 841.07 158.51 C 830.21 158.47 819.35 158.56 808.49 158.45 C 806.05 150.95 803.81 143.40 801.36 135.92 L 802.99 135.45 C 802.56 135.54 801.69 135.73 801.26 135.82 C 792.44 107.35 783.38 78.94 774.43 50.51 C 784.31 50.51 794.19 50.55 804.06 50.47 C 811.09 77.24 818.23 103.98 825.19 130.77 C 832.33 104.03 839.34 77.25 846.41 50.49 Z" />
<path fill="#000000" d=" M 1196.74 50.49 C 1206.15 50.52 1215.56 50.53 1224.98 50.50 C 1225.02 86.50 1225.01 122.51 1224.98 158.52 C 1215.56 158.48 1206.14 158.52 1196.73 158.50 C 1196.75 122.50 1196.73 86.50 1196.74 50.49 Z" />
<path fill="#000000" d=" M 1237.48 50.51 C 1268.30 50.51 1299.13 50.54 1329.95 50.49 C 1330.03 58.68 1330.04 66.88 1329.95 75.07 C 1319.21 74.91 1308.47 75.08 1297.74 74.96 C 1297.75 102.81 1297.78 130.66 1297.72 158.52 C 1288.39 158.51 1279.07 158.46 1269.75 158.55 C 1269.73 130.71 1269.80 102.87 1269.71 75.03 C 1258.98 74.98 1248.25 74.99 1237.52 75.03 C 1237.46 66.85 1237.51 58.68 1237.48 50.51 Z" />
<path fill="#000000" d=" M 883.75 50.48 C 912.42 50.56 941.09 50.50 969.76 50.51 C 969.75 58.10 969.73 65.69 969.77 73.28 C 950.52 73.20 931.26 73.28 912.01 73.24 C 911.99 79.41 912.00 85.57 912.00 91.74 C 929.57 91.71 947.14 91.78 964.71 91.70 C 964.79 99.04 964.69 106.37 964.75 113.70 C 947.17 113.84 929.59 113.72 912.00 113.76 C 911.99 120.50 912.00 127.25 912.00 133.99 C 931.77 134.02 951.53 133.92 971.29 134.05 C 971.24 142.20 971.25 150.35 971.27 158.51 C 942.10 158.48 912.93 158.54 883.76 158.48 C 883.74 122.48 883.76 86.48 883.75 50.48 Z" />
<path fill="#000000" d=" M 987.28 158.50 C 987.25 122.49 987.28 86.48 987.26 50.47 C 1005.84 50.56 1024.41 50.50 1042.98 50.50 C 1053.21 50.66 1064.00 53.21 1071.69 60.35 C 1085.54 73.51 1081.57 100.47 1063.63 108.06 C 1068.81 109.77 1073.09 113.64 1075.22 118.68 C 1081.25 131.21 1077.11 146.02 1083.13 158.55 C 1073.79 158.45 1064.45 158.52 1055.11 158.51 C 1051.34 148.76 1053.43 137.89 1049.88 128.10 C 1048.19 123.12 1043.42 119.33 1038.08 119.32 C 1030.56 119.15 1023.03 119.30 1015.51 119.26 C 1015.50 132.33 1015.48 145.41 1015.51 158.49 C 1006.10 158.51 996.69 158.50 987.28 158.50 Z" />
<path fill="#000000" d=" M 1371.25 50.53 C 1380.86 50.50 1390.46 50.52 1400.08 50.51 C 1413.47 86.53 1427.09 122.47 1440.43 158.51 C 1430.55 158.49 1420.67 158.52 1410.80 158.49 C 1408.67 152.07 1406.36 145.70 1404.24 139.28 C 1391.77 139.24 1379.30 139.20 1366.84 139.30 C 1364.63 145.72 1362.25 152.07 1360.08 158.50 C 1350.34 158.49 1340.60 158.53 1330.87 158.48 C 1333.17 152.25 1335.63 146.04 1337.82 139.78 C 1336.81 137.30 1339.56 136.34 1339.99 134.12 C 1350.41 106.26 1360.86 78.40 1371.25 50.53 Z" />
<path fill="#020202" d=" M 220.17 58.75 C 221.99 58.39 223.61 57.39 225.34 56.74 C 224.93 59.83 223.65 62.69 222.21 65.42 C 218.25 63.46 214.00 60.94 209.44 62.61 C 209.03 64.29 208.79 66.99 210.98 67.52 C 216.06 68.85 221.55 69.12 226.17 71.91 C 228.59 73.99 228.78 77.53 228.42 80.48 C 226.81 85.00 221.62 87.57 216.99 87.28 C 214.19 87.36 211.75 85.46 208.98 85.48 C 206.89 86.55 205.22 88.23 203.24 89.46 C 203.31 85.70 203.91 81.90 205.23 78.37 C 209.23 79.43 212.69 82.61 217.07 81.98 C 219.64 81.82 222.41 78.79 220.80 76.29 C 218.76 72.93 214.33 73.61 211.00 73.17 C 206.99 73.23 202.97 70.95 201.50 67.13 C 199.97 64.18 201.24 59.90 204.48 58.69 C 209.51 56.51 214.98 58.31 220.17 58.75 Z" />
<path fill="#020202" d=" M 270.79 70.15 C 266.29 66.21 268.66 57.04 274.97 56.78 C 281.55 56.21 286.49 61.90 292.98 61.78 C 293.68 64.23 290.28 66.18 288.44 67.42 C 285.11 64.78 281.07 61.61 276.63 63.80 C 276.25 65.83 276.84 68.28 279.00 69.01 C 282.69 70.97 287.93 72.59 288.40 77.48 C 289.83 83.41 284.66 88.84 279.11 89.80 C 275.08 89.73 272.02 86.88 268.51 85.34 C 265.66 83.92 262.63 85.95 259.66 85.78 C 261.50 82.57 263.30 79.14 266.08 76.67 C 269.31 77.64 270.77 81.62 274.07 82.68 C 275.89 83.24 277.98 83.70 279.79 82.80 C 282.55 81.91 283.55 77.73 281.21 75.87 C 277.80 73.85 273.50 73.28 270.79 70.15 Z" />
<path fill="#010101" d=" M 244.04 65.13 C 245.25 63.09 246.25 60.90 247.99 59.23 C 249.50 60.04 250.66 61.29 251.27 62.90 C 252.30 65.53 254.87 67.23 255.66 69.97 C 255.32 72.03 253.00 72.51 251.56 73.57 C 250.34 74.82 249.36 76.30 248.23 77.63 C 245.06 77.10 244.19 73.83 241.97 72.03 C 240.67 70.91 238.90 69.13 240.18 67.32 C 241.41 66.49 242.82 65.97 244.04 65.13 Z" />
<path fill="#020202" d=" M 297.75 70.95 C 299.14 68.59 299.81 64.70 302.95 64.17 C 305.63 64.77 307.89 66.42 310.36 67.56 C 316.75 70.88 323.70 73.17 329.68 77.22 C 333.45 79.54 328.79 83.11 327.23 85.36 C 326.82 85.38 326.00 85.42 325.59 85.45 C 324.52 82.47 322.56 80.04 319.55 78.88 C 314.81 81.63 313.13 87.34 311.14 92.11 C 309.69 95.11 311.23 98.27 311.58 101.32 C 309.43 101.03 307.42 100.25 305.49 99.30 C 302.39 97.78 298.79 97.22 296.11 94.92 C 297.23 92.86 299.81 93.39 301.64 92.48 C 303.11 91.33 303.88 89.57 304.80 88.00 C 306.90 84.07 309.66 80.39 310.80 76.03 C 311.05 73.10 307.99 71.78 305.81 70.77 C 303.17 70.08 300.43 71.01 297.75 70.95 Z" />
<path fill="#010101" d=" M 169.30 70.96 C 169.45 69.89 169.67 68.45 171.06 68.51 C 176.07 66.97 178.34 72.93 181.45 75.60 C 186.53 79.93 189.38 86.45 195.22 89.93 C 196.29 90.49 196.76 91.62 197.32 92.62 C 194.02 93.86 190.55 95.21 186.98 95.10 C 186.85 92.37 186.99 88.72 183.95 87.47 C 180.16 86.68 175.57 88.73 174.68 92.77 C 175.60 94.95 177.24 96.64 178.84 98.34 C 175.43 100.22 171.80 102.49 167.76 102.34 C 168.64 99.30 170.06 96.32 169.86 93.08 C 169.49 85.71 169.47 78.33 169.30 70.96 Z" />
<path fill="#FFFFFF" d=" M 1015.51 73.26 C 1022.68 73.23 1029.86 73.26 1037.04 73.24 C 1041.16 73.18 1045.60 74.05 1048.69 76.98 C 1054.86 83.22 1051.31 96.26 1042.04 97.03 C 1033.21 97.56 1024.34 97.06 1015.49 97.28 C 1015.52 89.27 1015.48 81.27 1015.51 73.26 Z" />
<path fill="#020202" d=" M 148.03 80.84 C 150.22 79.60 152.74 77.34 155.38 78.65 C 156.64 80.18 158.89 82.64 157.77 84.63 C 154.73 85.28 150.22 85.09 149.37 88.95 C 152.02 95.70 155.54 104.09 163.49 105.69 C 161.24 107.77 158.33 108.94 155.99 110.92 C 154.30 112.35 152.27 113.34 150.09 113.78 C 150.27 110.57 151.62 107.12 149.95 104.09 C 148.03 100.13 145.90 96.07 142.62 93.06 C 138.96 91.76 136.32 95.75 134.80 98.52 C 132.36 97.36 129.71 95.29 130.07 92.27 C 135.57 87.73 142.31 85.05 148.03 80.84 Z" />
<path fill="#FFFFFF" d=" M 175.92 78.33 C 177.37 79.24 178.96 80.55 178.35 82.49 C 177.87 84.10 176.13 83.39 174.91 83.45 C 174.84 82.43 174.77 81.42 174.70 80.40 C 175.01 79.88 175.61 78.85 175.92 78.33 Z" />
<path fill="#020202" d=" M 334.94 80.63 C 339.21 81.95 342.55 85.04 346.16 87.52 C 343.90 89.16 340.98 89.95 339.25 92.26 C 336.88 95.44 334.29 98.63 333.19 102.51 C 332.22 105.76 334.19 109.49 337.24 110.83 C 339.60 111.74 341.91 110.14 343.35 108.38 C 347.47 103.38 351.28 97.99 353.02 91.66 C 356.39 94.20 360.39 96.37 362.34 100.29 C 360.16 101.02 357.42 100.82 355.82 102.73 C 351.88 106.85 349.47 112.41 344.60 115.62 C 336.92 119.60 325.36 112.84 326.04 103.93 C 328.18 95.87 334.81 89.22 334.94 80.63 Z" />
<path fill="#FFFFFF" d=" M 1385.55 80.67 C 1389.62 93.16 1393.48 105.72 1397.43 118.25 C 1389.42 118.24 1381.42 118.21 1373.42 118.26 C 1377.45 105.73 1381.56 93.22 1385.55 80.67 Z" />
<path fill="#010101" d=" M 220.99 97.29 C 221.02 95.50 220.59 92.76 222.96 92.33 C 225.50 90.92 229.97 93.51 228.37 96.48 C 226.70 99.00 223.39 97.83 220.99 97.29 Z" />
<path fill="#020202" d=" M 234.36 92.36 C 236.93 91.22 240.51 94.80 238.23 97.11 C 236.09 98.63 233.37 97.93 231.74 96.04 C 231.69 94.38 232.90 92.97 234.36 92.36 Z" />
<path fill="#020202" d=" M 212.03 98.16 C 211.93 95.80 213.08 92.53 216.03 92.94 C 218.66 92.62 219.27 96.84 217.09 97.88 C 215.71 99.61 213.71 98.80 212.03 98.16 Z" />
<path fill="#030303" d=" M 242.63 93.75 C 244.93 92.51 248.89 93.05 249.69 95.96 C 249.04 99.14 244.54 99.79 242.50 97.57 C 241.47 96.68 241.14 94.41 242.63 93.75 Z" />
<path fill="#020202" d=" M 250.23 96.02 C 252.25 94.07 254.87 93.19 257.52 94.47 C 257.93 95.74 258.32 97.02 258.70 98.31 C 255.88 100.59 251.59 99.31 250.23 96.02 Z" />
<path fill="#020202" d=" M 264.31 94.33 C 266.96 94.58 270.20 96.93 268.05 99.75 C 266.06 100.39 264.05 99.77 262.17 99.11 C 262.14 98.34 262.07 96.78 262.03 96.00 C 262.79 95.44 263.55 94.88 264.31 94.33 Z" />
<path fill="#060606" d=" M 203.96 96.71 C 206.17 96.38 210.23 96.82 209.22 100.01 C 207.42 102.19 204.08 101.14 202.49 99.21 C 202.86 98.58 203.59 97.34 203.96 96.71 Z" />
<path fill="#030303" d=" M 271.95 98.30 C 273.22 97.59 274.41 96.07 276.05 96.59 C 277.57 97.10 278.68 98.35 279.94 99.28 C 282.18 98.76 285.34 97.59 286.82 100.15 C 288.34 101.65 287.08 104.36 285.04 104.43 C 282.56 105.04 280.84 102.71 279.09 101.41 C 277.19 101.99 274.94 103.29 273.09 101.81 C 272.35 100.78 272.29 99.47 271.95 98.30 Z" />
<path fill="#020202" d=" M 113.37 106.28 C 115.79 103.60 118.40 101.02 121.60 99.28 C 123.49 106.21 128.37 111.75 132.69 117.30 C 134.61 120.26 138.92 118.53 140.81 121.43 C 137.47 123.92 134.68 127.29 130.74 128.85 C 128.92 121.46 123.92 115.53 119.19 109.79 C 117.74 107.92 115.44 107.21 113.37 106.28 Z" />
<path fill="#040404" d=" M 192.63 99.52 C 195.14 98.72 198.78 99.04 199.61 102.02 C 199.22 105.35 195.21 105.63 192.84 104.20 C 190.69 103.45 192.43 100.99 192.63 99.52 Z" />
<path fill="#000000" d=" M 185.37 102.33 C 187.34 102.14 191.25 101.79 190.51 104.91 C 190.51 108.45 186.04 107.89 183.72 107.18 C 183.74 105.45 183.60 103.33 185.37 102.33 Z" />
<path fill="#040404" d=" M 290.13 101.85 C 293.13 99.55 297.76 103.05 296.29 106.57 C 293.67 110.15 286.92 105.60 290.13 101.85 Z" />
<path fill="#030303" d=" M 298.57 107.90 C 298.79 106.50 300.18 105.82 301.04 104.85 C 302.81 105.67 305.70 106.28 305.30 108.89 C 304.34 112.51 298.85 111.22 298.57 107.90 Z" />
<path fill="#020202" d=" M 367.39 105.22 C 369.12 103.72 370.83 105.59 372.21 106.62 C 377.64 111.24 383.43 116.58 384.77 123.92 C 384.98 132.15 377.88 138.93 370.09 140.14 C 364.42 140.00 359.24 136.68 355.65 132.45 C 353.12 129.48 349.94 127.07 347.79 123.78 C 350.55 123.07 353.79 123.10 355.83 120.80 C 358.42 118.02 361.01 115.24 363.70 112.56 C 365.77 110.61 366.22 107.70 367.39 105.22 Z" />
<path fill="#090909" d=" M 174.57 107.90 C 176.33 106.09 179.72 105.27 181.32 107.72 C 182.76 109.43 180.73 111.74 178.80 111.52 C 176.54 111.75 175.68 109.35 174.57 107.90 Z" />
<path fill="#010101" d=" M 305.56 110.88 C 305.14 109.30 306.91 108.54 308.13 108.25 C 310.37 107.72 311.83 109.82 313.39 111.01 C 312.52 112.65 311.54 114.24 310.22 115.56 C 308.39 114.31 306.43 113.01 305.56 110.88 Z" />
<path fill="#080808" d=" M 168.70 112.72 C 169.76 110.82 172.57 110.31 174.10 111.96 C 174.51 114.24 172.13 115.11 170.74 116.34 C 169.78 115.33 168.09 114.38 168.70 112.72 Z" />
<path fill="#020202" d=" M 104.37 117.56 C 105.32 116.26 105.41 113.08 107.69 114.27 C 109.29 116.61 110.29 119.30 111.03 122.02 C 107.28 123.37 103.01 124.43 100.55 127.87 C 99.53 129.23 100.26 130.94 100.36 132.47 C 103.81 132.39 107.01 130.96 109.50 128.61 C 113.08 125.24 119.17 124.57 123.02 127.86 C 125.57 129.70 125.29 133.40 124.59 136.10 C 122.76 140.89 117.31 141.98 113.42 144.45 C 110.74 146.48 111.36 150.11 111.35 153.02 C 107.99 151.53 106.21 147.42 105.83 144.00 C 109.44 141.00 114.38 139.07 115.93 134.20 C 113.80 131.31 110.10 132.87 107.89 134.81 C 105.39 136.96 102.49 139.41 98.90 138.71 C 93.22 137.95 89.99 130.28 93.94 125.92 C 96.66 122.15 102.43 122.02 104.37 117.56 Z" />
<path fill="#050505" d=" M 313.52 116.09 C 315.01 113.83 318.43 112.28 320.59 114.65 C 322.54 116.08 321.32 119.79 318.97 119.89 C 316.73 119.34 315.11 117.62 313.52 116.09 Z" />
<path fill="#010101" d=" M 162.06 116.08 C 163.69 114.96 167.29 116.30 166.33 118.56 C 165.88 121.19 162.72 120.32 160.85 120.30 C 160.71 118.83 159.99 116.53 162.06 116.08 Z" />
<path fill="#FFFFFF" d=" M 364.59 120.58 C 367.17 118.45 369.26 114.98 372.88 114.73 C 377.36 117.16 378.96 123.77 376.00 127.98 C 374.28 130.97 371.10 132.65 367.91 133.63 C 364.88 132.37 362.07 130.41 359.87 127.99 C 359.40 124.75 362.70 122.73 364.59 120.58 Z" />
<path fill="#030303" d=" M 322.94 122.92 C 323.12 121.27 324.25 119.96 324.99 118.54 C 326.74 119.04 328.29 119.97 329.65 121.18 C 329.52 122.51 329.33 123.82 329.08 125.13 C 326.92 126.00 323.79 125.26 322.94 122.92 Z" />
<path fill="#030303" d=" M 152.28 124.70 C 151.31 121.66 155.69 118.86 157.99 121.15 C 159.42 122.88 157.92 124.61 157.14 126.22 C 155.52 125.85 153.36 126.29 152.28 124.70 Z" />
<path fill="#010101" d=" M 192.67 130.84 C 195.58 124.70 204.19 120.62 210.17 124.98 C 207.50 126.76 204.62 128.72 204.07 132.15 C 204.09 136.95 207.70 141.15 206.76 146.09 C 206.76 151.33 201.92 154.52 200.16 159.09 C 199.01 161.60 199.92 164.40 199.42 167.03 C 193.65 169.29 192.19 160.72 186.89 160.74 C 186.47 161.09 185.64 161.79 185.22 162.14 C 184.74 164.81 184.17 167.46 183.68 170.13 C 185.86 171.95 188.12 173.80 189.38 176.43 C 190.38 179.23 193.88 178.49 195.77 180.25 C 197.98 181.89 197.48 185.67 200.27 186.68 C 203.56 188.16 206.37 190.71 210.05 191.27 C 212.98 191.84 215.68 194.58 218.76 193.10 C 220.16 192.02 221.03 190.45 221.98 188.99 C 221.05 188.35 220.12 187.72 219.20 187.09 C 220.95 183.16 225.65 182.43 228.82 180.02 C 235.55 176.54 236.84 167.57 234.96 160.92 C 233.36 155.83 227.89 154.21 223.53 152.27 C 228.37 148.01 234.28 153.58 239.55 153.82 C 240.27 152.34 238.94 151.14 237.85 150.34 C 234.07 147.69 229.69 145.47 225.00 145.31 C 222.79 145.28 221.35 147.23 219.70 148.39 C 217.27 146.32 216.97 141.67 219.39 139.50 C 223.82 136.99 229.16 137.88 234.01 137.08 C 237.19 136.93 239.58 133.73 242.90 134.41 C 249.96 136.01 258.45 134.41 263.97 140.11 C 267.41 145.56 265.02 152.40 262.82 157.86 C 260.23 162.93 259.55 169.05 261.61 174.41 C 263.92 178.02 269.08 177.14 271.86 180.16 C 272.72 181.29 272.83 182.79 273.31 184.10 C 271.43 184.75 269.52 185.31 267.64 185.93 C 268.66 188.82 269.79 191.92 272.16 193.99 C 274.68 195.51 276.71 192.95 278.61 191.67 C 281.95 188.91 287.20 190.65 290.08 187.09 C 292.60 184.29 297.13 184.43 299.21 181.17 C 300.71 178.99 302.87 176.96 302.90 174.13 C 303.04 172.00 303.89 169.50 302.25 167.72 C 299.62 164.78 298.53 160.86 295.89 157.95 C 292.69 159.94 293.39 164.39 290.62 166.69 C 289.03 168.03 286.98 169.67 284.87 168.29 C 283.82 166.35 284.00 163.93 282.64 162.14 C 280.75 159.31 277.74 157.04 277.16 153.52 C 275.11 146.77 282.06 140.95 279.94 134.14 C 279.38 130.91 276.72 128.95 274.04 127.49 C 274.28 124.06 278.17 123.12 280.99 123.03 C 286.18 123.14 291.06 126.84 292.38 131.92 C 293.01 136.22 298.14 133.95 300.83 135.91 C 305.30 138.22 310.10 142.60 315.47 140.66 C 318.16 140.02 318.95 137.17 320.40 135.19 C 324.91 137.54 327.59 143.05 326.08 148.02 C 325.65 150.86 322.00 152.94 323.14 155.99 C 325.84 159.35 328.79 162.56 330.60 166.54 C 335.82 174.85 334.79 185.98 341.69 193.38 C 345.26 198.03 351.20 199.40 356.28 201.71 C 355.08 203.24 354.15 205.42 351.98 205.72 C 346.55 206.60 340.85 206.27 335.78 204.02 C 332.92 202.43 333.33 206.33 334.08 207.86 C 338.40 220.77 339.19 234.47 342.65 247.59 C 343.78 251.92 346.10 255.86 348.78 259.41 C 350.81 262.13 354.11 263.26 356.92 264.96 C 352.40 270.06 343.94 269.09 339.40 264.53 C 335.72 260.65 333.19 255.88 330.72 251.19 C 329.85 249.24 327.09 248.65 327.23 246.20 C 325.70 246.15 324.18 246.08 322.67 246.01 C 321.38 250.91 323.00 256.04 322.49 261.06 C 323.80 271.55 325.38 282.61 331.60 291.50 C 333.17 294.26 336.76 294.71 338.52 297.30 C 332.55 299.54 325.39 297.52 321.41 292.56 C 315.39 286.67 313.87 277.99 311.82 270.17 C 309.97 260.65 308.52 251.05 306.78 241.51 C 304.66 244.13 304.82 247.64 304.30 250.80 C 303.38 261.19 302.54 271.60 302.30 282.03 C 302.48 285.66 302.68 289.31 302.14 292.93 C 301.80 301.79 303.06 311.36 309.15 318.26 C 303.71 319.69 298.47 315.75 295.88 311.24 C 290.09 301.58 290.49 289.90 290.13 279.04 C 289.69 273.73 289.98 268.39 289.39 263.10 C 288.92 258.77 289.93 254.11 287.80 250.11 C 285.68 254.08 285.09 258.65 282.84 262.57 C 280.08 255.69 279.17 248.22 278.74 240.87 C 278.63 238.60 277.93 236.43 277.08 234.35 C 276.02 234.97 274.96 235.59 273.91 236.23 C 272.25 233.67 271.88 230.19 269.60 228.12 C 266.87 234.13 268.56 240.75 269.09 247.01 C 269.53 250.07 268.46 253.02 268.05 256.00 C 269.92 261.78 272.72 267.83 271.04 274.01 C 270.53 277.39 268.35 280.48 269.02 284.00 C 270.08 289.76 268.46 296.16 271.58 301.44 C 272.50 303.49 275.82 304.29 277.09 302.13 C 278.51 299.66 277.75 296.48 279.35 294.07 C 280.57 292.05 282.72 290.74 285.07 290.51 C 285.00 294.64 287.95 298.01 288.01 302.06 C 287.15 306.71 281.76 306.79 278.17 307.87 C 278.23 311.28 282.46 311.56 285.02 311.99 C 290.23 312.36 294.38 316.15 296.29 320.84 C 291.62 321.60 287.27 319.53 282.85 318.40 C 279.62 317.80 277.92 314.47 274.74 313.85 C 274.79 318.93 279.14 321.82 281.76 325.58 C 282.95 326.99 282.14 328.82 281.91 330.41 C 279.37 328.69 276.53 327.54 273.86 326.08 C 271.11 322.50 271.65 317.06 267.82 314.12 C 263.81 311.47 259.34 309.60 254.54 309.02 C 253.08 306.27 252.22 303.24 252.17 300.12 C 255.69 300.02 258.12 302.71 260.91 304.40 C 261.75 303.39 262.95 302.45 262.71 300.97 C 263.12 295.28 262.32 289.42 259.66 284.32 C 257.38 282.66 252.70 280.74 251.01 284.14 C 248.16 290.00 246.84 296.52 246.62 303.01 C 246.50 310.67 244.40 318.40 245.90 326.02 C 248.00 327.83 251.50 327.29 253.43 329.51 C 255.58 331.59 253.79 334.71 253.85 337.24 C 257.89 337.56 261.87 335.22 265.98 336.50 C 269.31 336.84 271.43 339.77 271.51 342.99 C 266.44 343.73 263.58 348.15 260.05 351.32 C 260.06 351.63 260.06 352.24 260.06 352.54 C 264.16 355.08 268.98 358.41 268.52 363.92 C 268.99 365.97 266.17 365.38 265.19 364.73 C 261.66 362.83 257.76 364.48 254.04 364.39 C 251.98 363.72 250.03 362.75 247.95 362.15 C 247.64 364.72 248.66 367.74 246.83 369.93 C 245.62 371.37 243.78 372.03 242.25 373.04 C 240.22 374.20 238.57 376.01 236.28 376.68 C 234.64 374.93 232.77 373.44 231.06 371.78 C 228.97 369.64 228.76 366.52 227.98 363.80 C 224.49 363.82 220.84 364.61 217.47 363.32 C 214.80 362.30 212.03 361.57 209.22 361.09 C 210.16 355.96 214.86 353.16 219.47 351.78 C 217.53 349.29 214.57 347.69 213.23 344.74 C 211.75 341.78 209.26 339.56 206.64 337.64 C 207.57 336.29 208.35 334.60 210.05 334.08 C 213.96 332.46 217.79 334.92 221.57 335.70 C 221.48 332.67 220.63 328.57 223.99 326.91 C 226.51 324.79 231.42 329.51 232.18 325.18 C 232.18 315.78 230.14 306.48 230.08 297.07 C 228.99 291.86 229.19 285.64 224.89 281.83 C 221.07 286.97 218.27 292.91 216.60 299.09 C 215.97 300.65 217.30 302.12 218.45 303.02 C 221.64 303.03 223.24 299.33 226.43 299.05 C 226.48 301.69 226.56 304.38 226.02 306.98 C 225.11 310.18 221.10 309.43 219.01 311.33 C 215.29 314.27 210.17 316.79 209.76 322.14 C 209.31 328.06 202.62 332.00 197.21 330.54 C 199.10 327.05 200.88 323.42 203.71 320.58 C 205.19 319.17 205.58 315.92 203.11 315.38 C 198.61 317.39 194.24 319.66 190.05 322.25 C 186.71 322.76 183.51 320.66 180.11 320.69 C 180.19 318.12 180.74 314.32 184.00 314.11 C 189.06 314.02 195.49 313.88 198.54 309.13 C 196.00 307.16 192.37 305.91 191.47 302.48 C 189.97 299.36 193.10 296.91 194.72 294.63 C 194.75 293.20 194.79 291.77 194.83 290.35 C 196.59 290.59 198.56 290.84 199.65 292.44 C 201.48 295.22 201.01 298.79 202.42 301.73 C 203.30 302.80 205.02 302.72 206.07 302.00 C 211.13 296.70 213.43 289.26 213.45 282.04 C 213.35 280.08 212.27 278.39 211.62 276.59 C 208.80 269.70 208.64 261.31 212.93 254.97 C 214.42 252.95 214.61 250.43 214.41 248.01 C 213.80 243.16 216.46 238.54 215.54 233.69 C 214.75 230.22 216.25 226.90 216.89 223.55 C 216.50 223.77 215.71 224.22 215.32 224.44 C 214.04 228.05 213.60 232.02 211.03 235.04 C 209.96 234.06 208.88 233.09 207.79 232.16 C 206.77 233.95 206.29 235.96 205.97 237.98 C 205.11 243.01 203.29 247.83 202.60 252.89 C 202.09 256.04 201.62 259.60 198.88 261.66 C 197.50 258.14 197.38 254.33 196.50 250.69 C 196.18 251.02 195.55 251.70 195.24 252.03 C 193.19 264.99 191.60 278.04 190.70 291.13 C 189.94 298.00 187.73 304.94 182.77 309.96 C 179.22 312.38 174.50 314.04 170.46 311.77 C 173.20 309.34 176.38 307.10 177.74 303.55 C 180.49 296.48 180.38 288.77 181.57 281.37 C 182.16 267.53 181.42 253.68 180.66 239.87 C 180.59 238.18 180.16 236.54 179.46 235.01 C 176.09 237.78 176.76 243.02 175.55 246.91 C 172.36 259.32 171.17 272.77 163.61 283.54 C 159.11 290.38 149.34 293.05 142.19 288.79 C 144.84 286.89 148.05 285.71 150.18 283.14 C 153.04 279.63 155.20 275.55 156.67 271.27 C 159.14 258.96 161.33 246.58 162.07 234.03 C 161.92 231.80 163.79 228.90 161.55 227.24 C 157.66 233.16 156.34 240.38 152.22 246.19 C 147.70 253.43 138.36 257.53 130.07 254.94 C 134.78 251.01 139.03 246.42 141.94 240.98 C 145.08 234.34 145.48 226.87 147.82 219.97 C 149.42 213.90 152.30 208.32 154.55 202.50 C 155.30 201.23 153.72 200.43 153.07 199.60 C 147.48 200.62 141.22 202.07 136.00 199.05 C 134.17 197.94 131.27 196.98 131.12 194.51 C 137.70 192.50 144.65 190.64 149.99 186.07 C 152.79 183.47 155.56 180.63 157.11 177.08 C 159.21 171.77 160.64 166.19 163.09 161.02 C 164.39 158.20 167.00 156.09 167.82 153.04 C 167.86 150.90 165.51 150.05 164.38 148.57 C 160.70 144.15 161.84 137.17 166.10 133.53 C 169.28 136.32 172.25 140.84 177.12 139.99 C 181.05 139.37 184.70 137.59 188.55 136.63 C 191.29 136.06 191.43 132.84 192.67 130.84 Z" />
<path fill="#020202" d=" M 330.25 125.52 C 332.79 124.40 335.90 124.39 337.20 127.28 C 336.92 128.03 336.37 129.52 336.09 130.27 C 332.83 131.50 329.40 129.07 330.25 125.52 Z" />
<path fill="#050505" d=" M 146.32 126.64 C 147.68 125.83 149.29 125.42 150.75 126.26 C 152.90 128.02 150.43 131.59 148.04 131.00 C 146.19 130.79 144.44 128.01 146.32 126.64 Z" />
<path fill="#fefefe" d=" M 198.20 129.82 C 200.01 130.35 199.23 132.59 199.67 133.97 C 199.74 137.94 203.46 140.99 202.70 145.08 C 202.48 150.12 198.70 153.78 195.96 157.65 C 193.11 157.34 190.09 157.33 187.41 156.24 C 184.04 154.67 183.94 149.34 187.13 147.59 C 189.37 147.89 189.41 150.51 190.36 152.08 C 192.61 151.67 193.65 149.75 193.77 147.61 C 193.44 147.06 192.78 145.94 192.45 145.39 C 189.47 144.04 185.27 143.06 182.86 145.94 C 179.09 149.43 181.74 154.86 180.49 159.22 C 177.62 158.65 174.17 158.29 172.03 160.73 C 168.51 163.58 169.43 168.58 167.04 172.07 C 164.99 175.00 164.74 178.74 162.86 181.75 C 161.90 183.30 160.76 184.73 159.77 186.26 C 162.66 184.27 165.11 181.64 166.74 178.52 C 168.42 175.19 171.99 173.23 173.03 169.52 C 174.34 169.56 175.66 169.58 176.97 169.58 C 178.19 173.14 182.90 172.88 184.40 176.04 C 184.38 176.92 184.34 178.68 184.32 179.56 C 182.14 178.89 180.34 177.17 178.04 176.93 C 172.34 180.08 173.45 187.89 168.57 191.67 C 165.92 194.69 163.81 198.22 162.28 201.92 C 164.21 200.16 165.04 197.57 166.63 195.53 C 168.13 193.06 170.60 191.47 172.75 189.63 C 174.66 187.95 174.78 184.88 177.03 183.52 C 180.12 184.02 183.34 185.12 186.33 183.43 C 188.54 182.05 191.11 182.26 193.04 184.00 C 192.82 185.70 192.30 187.33 191.20 188.67 C 189.50 187.92 187.75 185.23 185.74 186.72 C 181.65 189.16 180.00 193.93 177.87 197.92 C 176.71 200.24 174.37 201.75 173.38 204.15 C 173.34 208.12 172.88 212.04 172.30 215.95 C 172.68 216.33 173.44 217.08 173.82 217.46 C 175.39 211.67 174.94 204.88 179.24 200.20 C 181.55 197.52 181.40 193.26 184.74 191.39 C 188.91 192.63 193.29 192.44 197.19 190.45 C 199.42 188.89 202.14 191.56 200.74 193.89 C 198.67 195.28 195.77 192.98 193.85 194.81 C 189.50 198.11 189.08 203.97 189.40 208.98 C 187.91 213.69 186.68 218.69 188.21 223.58 C 190.40 220.03 189.67 215.51 191.66 211.83 C 193.67 208.41 190.72 204.32 192.76 200.91 C 193.36 199.15 195.42 199.40 196.86 199.67 C 199.32 200.16 201.81 199.74 204.28 199.45 C 203.90 201.22 203.63 203.08 202.44 204.53 L 202.10 205.14 C 201.12 206.28 201.96 207.59 202.35 208.78 C 202.45 209.69 202.65 211.51 202.76 212.42 C 203.92 210.05 204.64 207.45 206.15 205.25 C 207.74 203.21 210.65 203.19 212.45 201.44 C 214.38 199.85 215.63 196.87 218.60 197.40 C 219.07 199.52 217.74 201.06 216.39 202.49 C 219.85 206.16 221.73 210.96 225.07 214.72 C 226.85 214.05 228.56 213.21 230.28 212.40 C 232.12 214.51 234.26 217.64 232.28 220.38 C 230.62 222.38 228.08 224.67 225.26 223.88 C 220.07 220.90 218.47 214.65 216.39 209.46 C 213.83 212.51 213.87 216.81 212.25 220.34 C 211.91 220.42 211.23 220.59 210.89 220.67 C 209.89 219.18 208.88 217.70 207.85 216.23 C 207.25 216.26 206.04 216.33 205.43 216.36 C 204.75 219.65 203.88 222.89 203.20 226.18 C 203.00 230.32 203.15 234.61 201.46 238.50 C 199.05 235.58 200.02 231.49 199.82 228.01 C 200.63 227.20 201.44 226.40 202.26 225.59 C 201.13 224.46 199.89 223.42 198.86 222.20 C 197.75 219.56 197.77 216.52 196.16 214.06 C 193.12 218.05 193.15 223.29 192.10 228.00 C 191.40 241.00 189.56 253.94 189.06 266.97 C 188.38 271.72 188.55 276.73 186.36 281.12 C 186.00 279.78 185.52 278.44 185.52 277.03 C 185.66 253.29 183.99 229.62 183.30 205.92 C 179.82 208.03 178.22 211.93 176.33 215.34 C 174.90 217.70 175.03 220.55 174.54 223.17 C 172.59 234.71 171.67 246.42 168.96 257.83 C 167.09 264.19 166.41 271.01 163.03 276.84 C 161.18 280.01 159.62 283.50 156.70 285.86 C 155.90 286.86 154.78 286.47 153.80 286.04 C 154.88 283.24 157.18 281.15 158.46 278.45 C 163.58 269.11 163.75 258.20 165.52 247.94 C 166.80 240.36 166.96 232.63 168.58 225.12 C 170.23 218.58 169.76 211.77 170.32 205.10 C 170.13 204.57 169.75 203.51 169.57 202.98 C 165.64 206.67 164.41 212.02 161.77 216.53 C 159.41 221.49 156.60 226.21 154.25 231.17 C 152.42 235.91 150.26 240.54 147.74 244.95 C 146.76 246.27 145.26 248.01 143.44 247.51 C 143.57 244.90 145.74 243.14 146.98 241.03 C 148.61 238.29 150.33 235.39 150.46 232.12 C 150.81 223.37 154.06 215.13 156.99 206.99 C 158.73 202.12 162.17 197.77 162.19 192.40 C 158.01 192.37 155.04 195.78 151.14 196.70 C 147.44 197.48 143.44 198.55 139.79 197.02 C 140.06 194.77 142.48 194.19 144.14 193.19 C 149.79 190.53 154.82 186.59 158.72 181.71 C 161.60 177.50 163.20 172.61 164.76 167.81 C 166.69 161.67 170.75 156.54 174.75 151.62 C 175.73 150.61 175.96 149.19 176.27 147.87 C 172.89 147.19 168.33 148.14 166.14 144.81 C 165.11 143.33 166.34 141.64 166.60 140.14 C 170.75 141.08 174.31 145.32 178.87 143.41 C 183.71 141.53 188.46 139.35 193.73 138.94 C 194.80 135.73 195.58 132.19 198.20 129.82 Z" />
<path fill="#030303" d=" M 336.51 131.54 C 337.08 129.55 339.47 130.23 341.02 129.82 C 342.21 131.13 343.33 132.52 344.32 134.00 C 343.23 134.93 342.50 136.47 341.00 136.79 C 338.25 136.77 336.63 134.01 336.51 131.54 Z" />
<path fill="#020202" d=" M 386.49 139.69 C 389.82 137.38 391.43 133.55 393.88 130.45 C 397.52 133.43 399.65 137.76 401.43 142.01 C 398.54 142.13 395.45 141.96 392.90 143.58 C 388.38 146.33 383.44 148.64 379.68 152.45 C 377.90 154.16 379.14 158.38 375.83 158.31 C 373.11 154.65 370.93 150.60 368.72 146.62 C 371.72 145.85 375.07 147.63 377.79 145.69 C 380.65 143.64 383.57 141.68 386.49 139.69 Z" />
<path fill="#020202" d=" M 136.98 132.74 C 138.47 132.69 139.92 132.47 141.35 132.07 C 142.55 132.46 143.73 132.88 144.91 133.33 C 144.56 134.94 143.98 136.88 141.97 136.97 C 139.55 137.62 138.89 134.49 138.86 132.73 C 138.39 132.73 137.45 132.74 136.98 132.74 Z" />
<path fill="#fdfdfd" d=" M 284.98 131.88 C 286.63 134.33 286.31 138.28 289.08 139.80 C 291.97 138.95 294.87 137.56 297.95 138.53 C 302.81 140.05 306.76 143.80 311.90 144.59 C 315.09 145.47 317.94 143.43 320.98 142.92 C 323.06 144.27 322.65 146.95 321.81 148.90 C 320.78 151.67 317.86 152.89 315.76 154.70 C 318.12 156.52 320.63 158.19 322.69 160.37 C 327.16 166.45 330.05 173.56 331.67 180.91 C 332.79 186.47 335.85 191.32 339.24 195.76 C 341.27 199.02 345.10 200.26 347.92 202.68 C 344.36 204.21 340.57 202.01 337.54 200.24 C 333.80 198.29 330.92 194.85 326.84 193.61 C 326.19 197.48 326.96 201.40 328.39 205.01 C 330.35 211.63 332.55 218.23 333.29 225.13 C 334.63 230.94 336.47 236.64 337.25 242.58 C 337.96 247.98 340.74 252.79 341.65 258.14 C 336.71 254.60 335.07 248.50 333.12 243.08 C 330.14 233.97 327.40 224.78 325.47 215.38 C 326.44 214.20 327.12 212.86 327.50 211.37 C 326.64 211.44 324.93 211.58 324.08 211.66 C 323.02 210.59 321.99 209.50 320.85 208.53 C 318.13 212.45 319.29 217.60 318.29 222.04 C 316.38 231.25 317.36 240.66 317.27 249.98 C 317.66 256.35 317.57 262.76 318.58 269.09 C 319.43 275.00 321.58 280.63 322.61 286.51 C 319.00 283.82 318.05 279.10 317.11 274.97 C 314.53 260.58 312.55 246.07 311.35 231.50 C 309.12 225.91 309.91 218.77 305.25 214.41 C 304.61 218.06 304.77 221.79 304.14 225.44 C 300.99 241.08 300.12 257.06 298.72 272.92 C 297.96 278.57 298.61 284.27 298.06 289.94 C 297.56 294.81 299.80 299.86 297.69 304.53 C 294.80 300.57 295.26 295.50 294.49 290.92 C 293.16 281.65 293.80 272.27 293.96 262.96 C 293.68 253.95 292.83 244.97 292.95 235.95 C 291.91 230.62 291.34 225.13 289.45 220.02 C 288.30 220.56 287.23 221.28 286.15 221.96 C 285.52 219.05 284.08 216.17 284.54 213.14 C 285.43 210.32 287.47 207.99 288.10 205.07 C 288.61 202.50 288.85 199.89 289.48 197.34 C 292.56 197.58 295.65 197.50 298.61 196.50 C 301.51 200.60 298.85 205.75 296.13 209.17 C 293.01 212.87 294.30 217.90 295.22 222.17 C 295.22 224.84 295.36 227.54 296.44 230.03 C 298.42 224.28 296.54 218.07 297.23 212.16 C 298.61 208.46 302.22 205.97 303.02 201.99 C 304.29 198.52 303.20 194.89 303.24 191.34 C 304.50 190.77 305.89 190.32 307.30 190.50 C 310.12 193.70 305.77 198.41 308.21 201.84 C 309.47 203.61 311.31 204.98 312.16 207.04 C 313.67 210.57 313.26 214.50 313.47 218.24 C 314.47 213.70 314.82 209.02 314.34 204.40 C 313.08 201.92 310.03 200.05 311.03 196.86 C 311.81 192.70 313.77 187.06 309.23 184.34 C 307.90 185.09 306.56 185.84 305.23 186.58 C 304.18 185.32 302.94 183.78 304.19 182.17 C 306.74 179.51 310.72 178.90 314.24 178.57 C 315.78 181.84 316.06 185.48 316.79 188.98 C 317.61 192.47 321.85 193.72 322.80 197.14 C 323.90 200.58 324.52 204.15 325.62 207.59 C 325.74 203.14 325.06 198.66 323.19 194.59 C 321.91 192.34 319.13 190.84 319.00 188.04 C 318.65 183.49 320.05 178.22 316.48 174.56 C 315.10 171.90 310.99 171.26 309.82 174.46 C 309.30 174.62 308.26 174.93 307.74 175.09 C 306.54 170.67 310.18 167.03 313.54 164.79 C 314.50 167.09 315.10 169.56 316.38 171.72 C 317.85 173.24 320.29 173.55 321.43 175.46 C 324.00 178.68 325.57 182.57 328.17 185.77 C 326.96 181.44 324.26 177.60 323.88 173.04 C 323.47 170.25 319.56 170.10 318.63 167.57 C 317.55 163.93 316.57 159.93 313.51 157.38 C 311.63 155.46 307.81 155.08 306.44 157.82 C 306.55 159.79 308.72 162.35 306.08 163.57 C 303.69 163.15 301.77 161.24 301.23 158.90 C 299.88 154.71 301.58 149.41 297.77 146.24 C 296.02 144.09 293.17 144.15 290.66 144.18 C 290.40 145.34 290.14 146.51 289.89 147.68 C 289.38 147.39 288.37 146.80 287.86 146.51 C 287.12 148.83 287.50 151.13 289.17 152.94 C 291.04 151.92 291.88 149.98 293.11 148.36 C 295.21 147.30 296.64 150.29 296.48 151.99 C 295.57 155.62 291.31 155.91 288.55 157.45 C 288.29 158.94 288.08 160.43 287.95 161.94 C 284.75 158.29 279.39 154.60 280.64 149.07 C 282.36 143.39 285.52 138.06 284.98 131.88 Z" />
<path fill="#010101" d=" M 343.72 139.11 C 344.31 138.42 345.50 137.05 346.10 136.37 C 348.09 135.59 350.19 137.36 351.02 139.10 C 351.30 140.65 349.68 141.64 349.05 142.86 C 346.82 142.31 344.88 141.14 343.72 139.11 Z" />
<path fill="#070707" d=" M 132.34 139.44 C 133.47 138.40 135.09 138.61 136.50 138.44 C 136.99 138.88 137.96 139.76 138.45 140.20 C 137.34 141.97 135.25 144.68 132.92 143.08 C 131.28 142.49 131.60 140.60 132.34 139.44 Z" />
<path fill="#FFFFFF" d=" M 250.63 139.78 C 253.34 138.67 256.17 140.12 258.84 140.71 C 260.14 142.59 261.37 144.67 261.27 147.05 C 261.05 154.92 256.65 162.01 256.54 169.90 C 256.56 175.00 260.46 178.80 264.70 181.00 C 262.28 182.75 260.14 185.50 257.09 186.03 C 253.22 186.73 251.81 180.95 248.10 181.66 C 246.65 183.14 245.42 184.83 244.02 186.36 C 242.61 184.82 241.37 183.15 239.98 181.61 C 236.95 182.73 234.29 184.79 231.01 185.18 C 230.79 183.09 232.72 182.16 233.85 180.84 C 236.32 178.42 238.16 175.31 239.13 172.01 C 239.27 168.35 238.66 164.68 238.90 161.02 C 240.53 158.95 244.04 159.59 245.53 157.09 C 245.00 153.92 243.42 151.04 241.20 148.75 C 238.34 145.44 233.93 144.22 230.67 141.42 C 233.28 140.80 236.14 140.81 238.19 142.78 C 241.81 145.70 245.83 148.54 250.70 148.49 C 252.91 145.61 249.15 142.57 250.63 139.78 Z" />
<path fill="#060606" d=" M 352.37 144.52 C 354.87 142.13 359.46 145.87 357.57 148.71 C 355.48 152.07 349.18 147.14 352.37 144.52 Z" />
<path fill="#010101" d=" M 124.93 149.04 C 125.14 146.09 129.91 143.74 131.41 147.02 C 130.97 148.55 129.93 149.79 129.08 151.10 C 127.54 150.78 125.05 151.27 124.93 149.04 Z" />
<path fill="#020202" d=" M 78.37 149.33 C 81.64 146.08 87.10 147.05 90.48 149.63 C 93.24 151.31 92.70 155.17 94.83 157.30 C 98.86 159.34 103.39 157.57 107.53 156.81 C 106.81 160.90 104.55 164.53 101.57 167.36 C 100.25 164.29 96.71 160.72 93.24 162.91 C 91.26 165.33 88.61 168.80 89.93 172.02 C 92.73 173.66 96.03 172.44 99.05 172.57 C 97.72 176.37 96.11 180.12 94.03 183.57 C 91.52 183.73 90.97 181.00 89.56 179.53 C 86.21 176.07 81.32 175.01 77.07 173.07 C 74.08 171.54 70.70 172.16 67.49 172.20 C 67.50 168.25 70.09 165.11 71.35 161.54 C 72.99 157.12 75.34 152.94 78.37 149.33 Z" />
<path fill="#010101" d=" M 359.49 152.42 C 361.80 149.93 367.22 153.94 364.49 156.74 C 362.37 160.30 356.42 155.11 359.49 152.42 Z" />
<path fill="#020202" d=" M 395.37 152.57 C 404.43 149.55 413.59 157.17 415.01 165.97 C 415.70 170.12 415.21 174.97 412.04 178.04 C 408.05 181.67 402.57 184.26 397.08 183.40 C 389.14 182.55 384.50 174.28 383.73 167.01 C 384.50 160.57 388.98 154.35 395.37 152.57 Z" />
<path fill="#030303" d=" M 118.46 156.98 C 117.86 153.62 123.55 151.72 124.70 155.06 C 124.81 156.70 123.45 157.75 122.36 158.71 C 120.69 158.48 119.02 158.51 117.34 158.60 C 117.71 158.05 118.08 157.51 118.46 156.98 Z" />
<path fill="#fdfdfd" d=" M 75.31 163.44 C 77.05 160.23 78.96 156.85 82.09 154.81 C 84.23 154.16 85.97 155.55 87.35 156.97 C 87.38 161.08 86.27 165.44 83.05 168.22 C 80.42 168.58 78.08 166.95 75.77 165.95 C 75.62 165.11 75.47 164.27 75.31 163.44 Z" />
<path fill="#000000" d=" M 364.31 157.73 C 366.11 158.13 367.97 158.36 369.70 159.07 C 372.36 160.51 372.13 165.52 368.82 165.90 C 367.10 165.44 364.89 164.87 364.35 162.92 C 363.86 161.22 364.14 159.45 364.31 157.73 Z" />
<path fill="#fdfdfd" d=" M 397.31 157.98 C 400.39 157.27 404.25 156.86 406.63 159.41 C 409.30 162.19 410.08 166.35 409.70 170.07 C 409.11 173.94 405.22 175.82 401.84 176.79 C 398.27 177.35 393.44 177.36 391.53 173.65 C 387.92 168.10 390.87 159.80 397.31 157.98 Z" />
<path fill="#010101" d=" M 113.77 161.83 C 115.27 160.20 117.45 161.75 119.23 161.95 C 119.20 163.95 118.42 165.67 116.76 166.81 C 114.38 168.57 115.30 172.09 113.31 174.14 C 111.75 176.08 107.44 174.77 108.15 172.00 C 108.38 169.32 111.50 168.89 113.38 167.72 C 113.27 165.82 112.06 163.37 113.77 161.83 Z" />
<path fill="#020202" d=" M 371.54 167.64 C 374.81 166.27 377.65 171.97 374.10 173.28 C 370.77 174.67 367.47 168.74 371.54 167.64 Z" />
<path fill="#000000" d=" M 739.60 194.59 C 748.01 182.98 761.71 175.69 775.91 174.39 C 790.59 172.88 806.39 176.41 817.76 186.18 C 825.75 192.91 830.29 202.99 831.22 213.29 C 821.84 213.19 812.46 213.28 803.08 213.25 C 802.35 208.77 799.84 204.68 795.96 202.28 C 789.51 198.26 781.27 197.52 774.04 199.61 C 766.34 201.93 760.88 208.92 758.69 216.43 C 755.72 226.47 755.98 237.58 759.87 247.33 C 762.86 254.80 769.72 260.91 777.88 261.77 C 786.27 262.70 795.75 261.13 801.88 254.89 C 804.37 252.54 805.53 249.26 806.50 246.07 C 799.90 245.93 793.29 246.01 786.69 245.98 C 786.80 239.00 786.75 232.01 786.70 225.03 C 801.88 224.97 817.06 225.03 832.24 225.02 C 832.25 244.77 832.27 264.52 832.23 284.27 C 826.15 284.25 820.06 284.29 813.98 284.23 C 813.42 280.43 812.84 276.62 812.43 272.80 C 807.75 278.70 801.25 283.15 793.89 284.92 C 776.40 289.44 756.56 284.07 743.93 271.08 C 724.71 250.94 723.38 216.89 739.60 194.59 Z" />
<path fill="#000000" d=" M 1046.76 187.00 C 1055.07 178.34 1067.38 174.92 1079.04 174.15 C 1092.41 173.46 1107.16 176.17 1117.03 185.89 C 1123.45 191.72 1126.37 200.56 1126.36 209.08 C 1116.97 208.92 1107.58 208.99 1098.20 209.07 C 1098.34 204.85 1096.30 200.57 1092.45 198.63 C 1086.20 195.43 1078.33 194.97 1071.92 197.94 C 1067.58 199.72 1065.54 206.18 1069.35 209.50 C 1075.57 214.35 1083.75 215.18 1091.15 217.17 C 1102.56 220.05 1114.93 223.13 1123.28 232.03 C 1130.40 239.71 1130.97 251.19 1128.53 260.90 C 1126.21 270.08 1119.10 277.53 1110.55 281.32 C 1099.14 286.43 1086.25 287.19 1073.95 286.06 C 1062.19 284.72 1049.85 280.26 1042.63 270.40 C 1037.68 263.96 1036.01 255.72 1035.74 247.77 C 1045.15 247.71 1054.57 247.76 1063.98 247.75 C 1064.42 252.61 1065.82 257.93 1069.99 260.94 C 1076.30 264.99 1084.34 265.15 1091.50 263.77 C 1096.54 262.73 1102.24 258.82 1101.53 253.01 C 1101.23 248.07 1096.12 245.67 1092.10 244.07 C 1079.37 239.57 1065.46 238.24 1053.60 231.43 C 1047.56 228.04 1042.49 222.66 1040.38 215.98 C 1037.44 206.11 1039.42 194.49 1046.76 187.00 Z" />
<path fill="#020202" d=" M 374.53 177.71 C 376.11 177.10 378.19 175.60 379.71 177.22 C 382.13 178.87 381.47 183.77 377.99 183.29 C 375.09 183.20 374.76 179.90 374.53 177.71 Z" />
<path fill="#000000" d=" M 514.78 176.24 C 530.85 176.31 546.92 176.20 563.00 176.29 C 576.30 176.63 590.24 180.51 599.75 190.30 C 611.49 201.79 614.91 219.20 613.84 235.06 C 613.20 248.23 608.86 261.89 599.03 271.11 C 589.54 280.38 575.92 283.98 562.96 284.24 C 546.88 284.31 530.80 284.21 514.72 284.29 C 514.82 248.27 514.70 212.25 514.78 176.24 Z" />
<path fill="#000000" d=" M 629.23 176.24 C 657.90 176.27 686.58 176.27 715.25 176.24 C 715.30 183.81 715.21 191.39 715.27 198.96 C 696.00 199.04 676.74 198.94 657.48 199.02 C 657.49 205.17 657.48 211.33 657.48 217.48 C 675.16 217.52 692.83 217.50 710.51 217.49 C 710.49 224.82 710.52 232.16 710.49 239.50 C 692.82 239.50 675.15 239.48 657.48 239.51 C 657.48 246.26 657.45 253.00 657.55 259.75 C 677.27 259.71 696.99 259.78 716.72 259.71 C 716.75 267.90 716.75 276.10 716.71 284.29 C 687.57 284.24 658.43 284.25 629.29 284.29 C 629.17 248.27 629.30 212.26 629.23 176.24 Z" />
<path fill="#000000" d=" M 850.26 176.22 C 859.58 176.29 868.91 176.26 878.24 176.23 C 878.28 204.09 878.19 231.94 878.28 259.80 C 895.09 259.63 911.90 259.82 928.71 259.71 C 928.77 267.90 928.77 276.10 928.71 284.29 C 902.56 284.23 876.42 284.27 850.27 284.27 C 850.22 248.25 850.25 212.23 850.26 176.22 Z" />
<path fill="#000000" d=" M 942.26 176.22 C 951.67 176.30 961.09 176.25 970.51 176.25 C 970.49 212.26 970.55 248.27 970.47 284.28 C 961.07 284.23 951.67 284.30 942.28 284.23 C 942.21 248.23 942.26 212.22 942.26 176.22 Z" />
<path fill="#000000" d=" M 1136.00 176.26 C 1166.84 176.26 1197.67 176.26 1228.50 176.25 C 1228.50 184.41 1228.50 192.56 1228.52 200.72 C 1217.78 200.75 1207.04 200.75 1196.30 200.72 C 1196.18 228.56 1196.28 256.41 1196.25 284.26 C 1186.83 284.27 1177.42 284.26 1168.00 284.26 C 1168.00 256.42 1168.00 228.58 1168.00 200.74 C 1157.33 200.74 1146.67 200.73 1136.00 200.74 C 1135.99 192.58 1136.00 184.42 1136.00 176.26 Z" />
<path fill="#000000" d=" M 1239.74 176.25 C 1249.16 176.24 1258.59 176.31 1268.02 176.21 C 1267.97 197.80 1268.01 219.40 1267.99 240.99 C 1268.16 246.62 1268.64 252.95 1272.80 257.21 C 1277.09 261.94 1284.12 262.38 1290.09 261.88 C 1295.12 261.58 1300.31 259.21 1302.80 254.63 C 1306.25 248.69 1305.43 241.60 1305.50 235.03 C 1305.50 215.43 1305.48 195.82 1305.51 176.22 C 1314.92 176.27 1324.33 176.29 1333.74 176.22 C 1333.66 199.49 1333.95 222.78 1333.60 246.05 C 1332.91 256.40 1330.09 267.24 1322.58 274.80 C 1314.68 282.98 1302.93 285.78 1291.94 286.36 C 1281.11 286.89 1269.77 286.10 1259.92 281.20 C 1252.19 277.47 1246.23 270.49 1243.35 262.45 C 1239.73 252.73 1239.68 242.20 1239.75 231.97 C 1239.74 213.40 1239.76 194.82 1239.74 176.25 Z" />
<path fill="#000000" d=" M 1352.51 176.25 C 1367.67 176.27 1382.84 176.26 1398.01 176.25 C 1406.26 176.31 1414.66 177.28 1422.35 180.45 C 1431.37 183.95 1439.22 190.51 1444.10 198.89 C 1449.31 207.66 1451.39 217.94 1451.65 228.05 C 1451.85 238.80 1450.27 249.84 1445.38 259.53 C 1441.93 266.00 1437.05 271.80 1430.85 275.79 C 1421.51 281.98 1410.09 284.21 1399.03 284.26 C 1383.51 284.25 1367.99 284.28 1352.48 284.25 C 1352.53 248.25 1352.47 212.25 1352.51 176.25 Z" />
<path fill="#000000" d=" M 1466.99 176.20 C 1476.40 176.32 1485.82 176.24 1495.24 176.24 C 1495.30 212.24 1495.22 248.24 1495.27 284.24 C 1485.86 284.30 1476.44 284.23 1467.03 284.27 C 1466.95 248.25 1467.04 212.23 1466.99 176.20 Z" />
<path fill="#010101" d=" M 104.04 180.94 C 104.01 177.77 107.66 176.92 110.16 176.76 C 110.75 179.13 110.69 182.62 107.73 183.32 C 106.32 182.94 104.69 182.39 104.04 180.94 Z" />
<path fill="#020202" d=" M 62.79 182.67 C 64.63 178.40 69.20 183.13 71.91 184.03 C 65.70 186.79 63.49 193.87 62.25 200.00 C 63.37 203.34 67.60 203.30 70.40 202.42 C 71.46 199.66 70.48 196.97 69.66 194.32 C 72.94 193.19 76.34 195.38 79.44 196.39 C 78.45 198.38 76.68 199.96 75.99 202.09 C 75.86 204.94 80.03 205.63 81.73 203.81 C 83.97 201.37 85.00 198.08 85.53 194.87 C 85.73 192.31 84.08 190.12 83.28 187.79 C 86.49 188.30 89.53 189.52 92.30 191.23 C 90.38 196.66 87.29 201.69 86.35 207.46 C 85.74 209.49 85.75 212.38 83.43 213.30 C 81.46 212.47 79.83 211.01 77.85 210.22 C 73.82 208.96 69.52 208.91 65.51 207.56 C 62.47 206.60 59.40 207.94 56.42 208.42 C 55.04 205.75 56.60 203.05 57.52 200.52 C 59.85 194.75 60.88 188.57 62.79 182.67 Z" />
<path fill="#040404" d=" M 99.73 187.99 C 100.09 184.90 103.78 184.70 106.12 183.91 C 106.51 185.80 106.98 188.02 105.43 189.56 C 103.97 191.88 99.44 191.02 99.73 187.99 Z" />
<path fill="#020202" d=" M 415.96 189.98 C 418.38 188.93 419.65 186.47 421.25 184.52 C 424.46 187.45 424.81 192.05 425.95 196.00 C 426.84 200.75 429.33 205.80 427.17 210.56 C 425.09 213.49 421.60 215.41 417.95 215.05 C 414.93 215.31 412.52 213.18 409.76 212.42 C 405.42 213.45 403.27 217.92 401.62 221.64 C 401.22 221.73 400.42 221.91 400.02 222.00 C 398.04 219.02 398.16 215.25 397.58 211.85 C 400.78 210.79 403.81 209.29 405.91 206.56 C 406.00 204.64 406.53 201.54 403.96 201.04 C 400.77 200.26 399.72 204.29 397.03 205.20 C 395.77 201.50 394.49 197.76 394.11 193.85 C 397.43 193.02 400.88 194.36 404.17 193.22 C 408.07 192.03 412.17 191.49 415.96 189.98 Z" />
<path fill="#070707" d=" M 378.39 188.82 C 378.80 188.28 379.62 187.21 380.03 186.67 C 381.51 187.04 383.89 186.87 384.21 188.88 C 384.81 190.33 384.24 192.32 382.51 192.58 C 380.18 193.34 379.04 190.50 378.39 188.82 Z" />
<path fill="#FFFFFF" d=" M 249.39 188.23 C 252.21 188.18 254.79 189.77 257.60 190.01 C 260.21 188.89 264.15 187.99 265.50 191.35 C 269.89 197.18 266.11 205.07 260.80 208.80 C 258.06 209.62 256.61 206.27 255.41 204.40 C 253.02 200.57 253.58 195.72 251.27 191.91 C 248.95 194.29 247.45 197.28 246.14 200.30 C 245.47 201.95 243.96 203.36 242.08 203.23 C 238.57 200.83 237.98 196.24 236.62 192.52 C 234.40 195.89 235.27 200.43 232.68 203.61 C 230.92 205.74 229.16 208.89 226.02 208.81 C 223.72 207.37 222.89 204.63 221.87 202.28 C 222.74 198.71 222.37 194.08 225.93 191.88 C 229.07 189.01 233.41 190.05 237.25 189.67 C 240.65 189.17 240.70 194.36 243.83 194.81 C 246.67 193.72 247.11 190.06 249.39 188.23 Z" />
<path fill="#fdfdfd" d=" M 293.22 191.83 C 292.41 188.72 295.99 188.35 298.17 188.46 C 297.48 190.54 295.50 192.19 293.22 191.83 Z" />
<path fill="#010101" d=" M 97.62 193.65 C 99.24 193.64 101.55 193.06 102.32 195.04 C 103.23 196.57 101.75 198.47 100.23 198.83 C 98.95 198.58 97.87 197.79 96.95 196.91 C 97.13 195.81 97.35 194.72 97.62 193.65 Z" />
<path fill="#fdfdfd" d=" M 205.68 197.49 C 206.75 196.01 208.51 195.48 210.17 194.91 C 210.60 196.04 210.99 197.19 211.31 198.36 C 209.41 198.27 207.52 197.96 205.68 197.49 Z" />
<path fill="#050505" d=" M 382.04 196.86 C 383.93 196.53 386.51 194.97 387.86 197.14 C 389.52 199.21 387.53 202.53 384.93 202.08 C 382.05 202.31 381.90 198.89 382.04 196.86 Z" />
<path fill="#fefefe" d=" M 412.08 199.07 C 413.88 197.00 416.71 196.59 419.16 197.69 C 419.88 200.94 421.03 205.90 416.82 207.27 C 412.88 207.14 411.59 202.32 412.08 199.07 Z" />
<path fill="#fdfdfd" d=" M 271.07 202.35 C 271.51 200.93 272.14 199.45 273.82 199.20 C 276.22 200.12 278.22 202.30 280.95 202.19 C 282.44 202.34 284.50 201.83 285.26 203.58 C 285.69 207.35 282.30 210.19 282.34 213.91 C 282.49 217.08 282.64 220.30 281.80 223.40 C 280.53 221.60 279.58 219.60 278.65 217.61 C 277.29 219.04 276.00 220.54 274.60 221.94 C 271.52 218.16 272.87 212.40 268.98 209.11 C 266.62 213.21 266.40 218.44 262.82 221.84 C 261.08 223.43 259.42 225.94 256.73 225.54 C 254.44 224.91 252.64 223.13 251.57 221.06 C 250.87 218.14 253.27 215.60 255.46 214.04 C 257.27 214.12 259.03 214.65 260.85 214.73 C 264.09 213.66 265.94 210.59 268.12 208.19 C 271.50 207.64 277.14 207.30 276.35 202.45 C 274.58 202.39 272.83 202.38 271.07 202.35 Z" />
<path fill="#030303" d=" M 94.52 205.56 C 93.01 203.39 94.97 201.10 96.89 200.13 C 97.70 200.64 98.52 201.15 99.33 201.67 C 99.54 202.24 99.96 203.38 100.16 203.96 C 98.79 205.69 96.64 207.19 94.52 205.56 Z" />
<path fill="#FFFFFF" d=" M 543.03 200.74 C 553.76 200.98 565.63 199.22 575.07 205.56 C 583.51 210.88 586.11 221.61 585.78 230.99 C 585.66 239.77 583.79 249.96 575.85 255.08 C 566.03 261.18 554.00 259.49 543.02 259.73 C 542.99 240.07 542.98 220.40 543.03 200.74 Z" />
<path fill="#FFFFFF" d=" M 1380.74 200.74 C 1391.55 200.96 1403.50 199.27 1412.98 205.70 C 1421.83 211.51 1424.03 223.07 1423.37 232.95 C 1423.08 241.22 1420.78 250.66 1413.23 255.26 C 1403.46 261.15 1391.60 259.53 1380.73 259.69 C 1380.74 240.04 1380.72 220.39 1380.74 200.74 Z" />
<path fill="#fdfdfd" d=" M 241.33 207.97 C 244.52 207.07 246.89 204.63 249.74 203.08 C 251.11 204.85 252.52 207.21 251.35 209.47 C 249.72 212.66 247.64 215.62 245.38 218.39 C 244.32 219.57 242.62 221.45 241.00 220.08 C 238.23 217.60 236.68 214.01 235.69 210.50 C 235.37 208.88 235.03 206.55 236.97 205.83 C 238.75 205.29 239.92 207.24 241.33 207.97 Z" />
<path fill="#030303" d=" M 385.41 205.40 C 386.97 204.90 389.16 205.21 389.52 207.11 C 390.52 209.84 387.31 210.95 385.32 211.59 C 384.38 209.73 383.25 206.86 385.41 205.40 Z" />
<path fill="#010101" d=" M 91.19 211.92 C 92.46 208.61 95.90 209.32 98.21 210.96 C 97.90 212.96 96.91 214.70 95.07 215.67 C 93.47 214.76 92.11 213.53 91.19 211.92 Z" />
<path fill="#010101" d=" M 389.65 220.30 C 386.19 220.67 385.51 214.80 388.81 214.17 C 389.64 214.16 391.30 214.14 392.13 214.13 C 392.81 216.52 392.61 219.72 389.65 220.30 Z" />
<path fill="#010101" d=" M 54.43 217.47 C 54.94 217.50 55.98 217.57 56.50 217.60 C 59.09 221.87 62.93 225.13 66.85 228.13 C 71.41 231.41 76.80 233.22 81.52 236.25 C 81.64 237.82 81.61 239.40 81.43 240.98 C 76.23 242.73 71.20 244.96 65.95 246.57 C 62.20 248.02 58.16 249.40 55.34 252.41 C 54.38 253.41 53.16 254.12 51.86 254.58 C 51.39 250.83 51.32 246.93 52.39 243.27 C 54.55 241.53 57.09 244.25 59.49 243.28 C 63.57 242.19 67.55 240.43 71.00 237.99 C 70.94 237.56 70.81 236.72 70.75 236.29 C 68.10 232.97 63.84 231.59 60.23 229.59 C 57.88 228.21 55.44 229.86 53.14 230.49 C 51.78 226.19 53.83 221.75 54.43 217.47 Z" />
<path fill="#030303" d=" M 90.42 218.99 C 91.58 218.51 92.74 218.00 93.95 217.66 C 96.60 218.58 96.55 222.02 94.66 223.67 C 93.01 224.01 91.62 222.67 90.19 222.08 C 90.24 221.30 90.36 219.76 90.42 218.99 Z" />
<path fill="#040404" d=" M 388.00 225.97 C 387.87 223.76 390.70 223.34 392.20 222.52 C 393.54 224.02 395.12 226.50 393.04 228.14 C 391.37 230.54 387.63 228.66 388.00 225.97 Z" />
<path fill="#fdfdfd" d=" M 235.36 225.54 C 237.77 223.84 239.92 226.50 242.12 227.25 C 244.60 226.68 247.32 224.20 249.75 226.29 C 252.04 229.10 249.77 232.73 248.59 235.53 C 247.09 238.21 245.72 242.15 242.22 242.55 C 238.79 241.80 237.32 238.04 235.84 235.24 C 235.08 232.16 233.94 228.56 235.36 225.54 Z" />
<path fill="#020202" d=" M 422.10 227.35 C 425.37 227.19 427.71 224.09 431.11 224.50 C 431.70 228.72 431.64 233.01 431.23 237.25 C 428.60 235.92 426.18 233.81 423.09 233.78 C 418.57 233.81 413.39 233.55 409.78 236.75 C 407.39 239.20 408.19 243.39 410.35 245.73 C 413.40 248.93 418.24 247.57 422.15 247.55 C 425.38 247.58 428.30 246.30 430.92 244.52 C 431.17 244.67 431.68 244.97 431.93 245.12 C 431.72 248.40 431.46 251.68 431.67 254.97 C 431.89 256.21 430.84 257.10 430.33 258.10 C 427.97 256.48 425.89 254.09 422.95 253.58 C 417.73 253.56 412.21 254.57 407.22 252.57 C 399.41 248.87 398.88 237.30 404.42 231.45 C 409.36 227.35 416.08 227.75 422.10 227.35 Z" />
<path fill="#060606" d=" M 88.48 229.18 C 87.98 226.56 91.06 226.19 92.84 225.71 C 94.88 227.87 95.07 230.80 93.06 233.05 C 91.19 232.26 88.08 231.94 88.48 229.18 Z" />
<path fill="#FFFFFF" d=" M 322.31 228.59 C 322.67 228.32 323.41 227.77 323.78 227.50 C 324.36 231.03 325.38 234.45 326.17 237.93 C 326.52 239.76 324.94 240.78 323.79 241.83 C 323.35 241.64 322.48 241.25 322.05 241.06 C 321.81 236.91 321.58 232.71 322.31 228.59 Z" />
<path fill="#fdfdfd" d=" M 221.40 230.58 C 223.03 230.01 224.63 229.34 226.19 228.59 C 226.33 229.12 226.61 230.17 226.75 230.70 C 227.59 230.78 229.27 230.95 230.11 231.03 C 231.10 232.92 230.79 235.24 231.30 237.28 C 229.81 239.44 228.43 241.99 225.99 243.18 C 224.60 243.85 223.48 242.37 222.63 241.49 C 220.53 238.29 219.73 234.14 221.40 230.58 Z" />
<path fill="#fefefe" d=" M 281.59 229.61 C 282.10 229.51 283.11 229.31 283.61 229.21 C 285.14 233.19 284.37 237.39 284.08 241.51 C 283.61 241.61 282.68 241.80 282.22 241.90 C 281.69 237.83 280.87 233.71 281.59 229.61 Z" />
<path fill="#fefefe" d=" M 255.88 231.99 C 258.69 231.93 261.13 229.28 263.85 229.91 C 264.44 234.35 263.06 239.96 258.65 242.02 C 255.21 242.19 254.04 238.58 252.76 236.10 C 253.62 234.59 253.60 231.91 255.88 231.99 Z" />
<path fill="#060606" d=" M 389.48 234.44 C 390.47 231.70 395.22 232.31 395.25 235.34 C 395.32 237.75 393.09 238.87 391.03 239.16 C 390.34 237.71 388.47 236.15 389.48 234.44 Z" />
<path fill="#010101" d=" M 87.00 237.93 C 88.35 236.04 90.51 234.99 92.24 233.51 C 92.87 236.14 95.41 239.51 92.70 241.73 C 91.19 243.28 89.18 241.83 87.52 241.44 C 87.30 240.27 87.12 239.10 87.00 237.93 Z" />
<path fill="#000000" d=" M 391.15 242.04 C 392.68 242.40 395.11 242.03 395.56 244.04 C 396.97 247.25 392.10 251.49 389.77 248.13 C 387.92 246.21 389.83 243.65 391.15 242.04 Z" />
<path fill="#fdfdfd" d=" M 250.17 243.13 C 252.96 244.44 255.41 246.40 258.28 247.57 C 260.49 246.99 262.23 245.37 264.20 244.27 C 265.05 246.00 265.61 247.92 264.77 249.79 C 263.44 253.41 262.73 258.12 258.99 260.06 C 253.89 259.94 250.31 255.37 248.98 250.81 C 247.53 248.27 248.33 245.21 250.17 243.13 Z" />
<path fill="#fefefe" d=" M 226.23 247.26 C 228.40 246.36 230.42 245.12 232.43 243.91 C 234.09 244.42 235.23 245.63 236.01 247.17 C 233.79 252.24 230.11 256.58 225.40 259.52 C 223.21 259.87 221.73 257.95 220.72 256.31 C 219.21 253.67 218.10 250.58 218.87 247.52 C 221.31 247.40 223.92 248.40 226.23 247.26 Z" />
<path fill="#010101" d=" M 89.36 245.49 C 91.95 243.37 94.88 247.70 93.04 249.95 C 92.42 252.65 89.29 251.63 87.66 250.58 C 87.84 248.81 87.37 246.42 89.36 245.49 Z" />
<path fill="#fdfdfd" d=" M 235.29 261.95 C 232.48 256.93 237.73 248.53 243.75 250.83 C 245.62 253.60 246.81 256.78 248.10 259.86 C 246.32 262.82 244.40 265.87 241.59 267.97 C 238.07 268.57 236.52 264.51 235.29 261.95 Z" />
<path fill="#020202" d=" M 388.73 258.49 C 387.64 256.77 389.09 255.04 389.82 253.52 C 391.76 253.80 395.26 254.01 394.53 256.90 C 394.69 259.73 389.65 261.62 388.73 258.49 Z" />
<path fill="#030303" d=" M 90.05 254.63 C 92.12 255.11 94.25 256.65 93.73 259.08 C 93.78 261.16 91.46 262.49 89.67 261.39 C 87.61 259.50 89.09 256.67 90.05 254.63 Z" />
<path fill="#020202" d=" M 399.73 271.39 C 400.46 266.93 399.91 261.64 402.79 257.94 C 404.93 260.23 406.77 263.03 409.85 264.15 C 416.06 266.60 421.82 271.73 428.92 270.35 C 431.15 271.73 430.02 275.04 429.20 277.03 C 424.89 278.80 419.96 279.34 416.04 282.09 C 414.13 283.61 415.34 286.00 416.64 287.47 C 419.22 290.30 422.06 292.91 425.14 295.21 C 424.82 298.36 423.94 301.43 422.76 304.36 C 421.17 303.86 419.96 302.79 419.02 301.46 C 413.17 299.91 407.01 299.66 400.98 299.42 C 397.71 299.06 395.02 301.49 391.82 301.62 C 390.95 300.09 391.54 298.44 391.96 296.90 C 392.79 294.30 393.37 291.40 395.56 289.56 C 396.99 291.09 398.20 293.14 400.45 293.52 C 404.09 293.93 407.77 293.80 411.43 293.77 C 411.73 292.92 412.07 292.07 412.28 291.19 C 410.38 287.11 406.75 284.22 404.39 280.45 C 408.25 278.68 412.70 278.02 415.93 275.08 C 413.70 272.31 410.32 270.92 407.18 269.48 C 404.50 268.02 402.26 270.90 399.73 271.39 Z" />
<path fill="#010101" d=" M 59.06 264.93 C 66.46 263.72 74.64 265.12 81.12 260.55 C 81.57 263.92 82.48 267.25 82.43 270.67 C 79.36 271.22 77.25 267.37 73.99 268.01 C 69.80 268.82 65.64 269.87 61.44 270.70 C 58.66 271.16 57.25 273.83 55.80 275.94 C 55.24 275.89 54.12 275.79 53.56 275.73 C 53.21 271.84 52.36 267.99 52.23 264.08 C 52.67 263.27 53.17 262.48 53.72 261.73 C 55.36 262.95 56.69 265.34 59.06 264.93 Z" />
<path fill="#fdfdfd" d=" M 216.08 262.25 C 219.50 260.45 220.19 266.66 223.69 266.31 C 225.82 265.38 227.62 263.78 229.87 263.13 C 232.02 263.66 233.06 266.66 231.69 268.44 C 229.24 271.98 226.08 275.34 221.88 276.73 C 219.50 276.50 216.60 275.94 215.49 273.55 C 213.91 269.96 214.60 265.76 216.08 262.25 Z" />
<path fill="#fefefe" d=" M 264.42 263.82 C 266.05 263.27 266.75 265.68 266.78 266.92 C 266.43 270.13 266.42 273.80 264.24 276.40 C 261.58 277.81 257.95 278.91 255.33 276.82 C 252.94 274.84 249.73 273.12 248.89 269.91 C 249.27 268.27 250.15 266.72 251.45 265.63 C 254.16 264.32 257.07 266.27 259.90 266.16 C 261.49 265.56 262.83 264.43 264.42 263.82 Z" />
<path fill="#090909" d=" M 386.49 266.09 C 387.56 263.62 390.30 262.61 392.60 264.13 C 394.14 266.54 391.56 268.51 390.62 270.56 C 389.65 270.16 388.71 269.70 387.77 269.27 C 387.35 268.20 386.93 267.14 386.49 266.09 Z" />
<path fill="#060606" d=" M 90.08 266.01 C 91.05 265.53 91.99 264.94 93.04 264.65 C 95.20 264.55 96.30 267.47 95.15 269.04 C 94.34 270.55 92.57 270.03 91.19 269.89 C 90.05 268.91 90.33 267.32 90.08 266.01 Z" />
<path fill="#050505" d=" M 384.82 275.91 C 385.79 273.91 387.59 271.16 390.16 272.74 C 393.00 273.54 392.03 276.98 389.77 277.82 C 387.86 279.12 386.02 277.25 384.82 275.91 Z" />
<path fill="#040404" d=" M 91.49 275.09 C 92.97 274.19 94.89 273.04 96.50 274.38 C 98.18 275.25 97.49 277.18 97.01 278.56 C 96.30 278.85 94.89 279.43 94.18 279.72 C 92.31 278.81 91.37 277.18 91.49 275.09 Z" />
<path fill="#737373" d=" M 236.11 273.29 C 237.51 272.95 237.98 273.48 237.54 274.86 C 236.13 275.20 235.65 274.68 236.11 273.29 Z" />
<path fill="#fcfcfc" d=" M 244.35 278.15 C 244.49 276.85 246.07 276.61 246.92 275.94 C 248.32 278.58 246.81 281.31 246.28 283.95 C 245.61 287.18 244.60 290.32 244.01 293.56 C 243.45 293.61 242.89 293.63 242.34 293.66 C 242.48 288.43 243.65 283.31 244.35 278.15 Z" />
<path fill="#fefefe" d=" M 232.00 286.04 C 231.86 282.98 229.92 279.47 232.22 276.83 C 234.79 281.08 234.45 286.26 235.73 290.93 C 236.23 295.59 237.62 300.54 236.00 305.09 C 233.31 299.11 233.12 292.41 232.00 286.04 Z" />
<path fill="#020202" d=" M 76.60 285.37 C 79.62 284.68 81.59 282.24 83.44 279.97 C 85.88 283.28 86.49 287.46 87.70 291.29 C 84.41 290.98 79.92 289.34 77.79 292.91 C 74.92 297.86 70.29 302.52 70.37 308.59 C 74.81 308.47 78.90 306.52 83.04 305.13 C 86.26 304.10 87.21 300.57 88.98 298.09 C 92.11 301.20 93.05 305.68 94.58 309.67 C 90.89 309.61 87.08 308.74 83.60 310.44 C 77.45 311.99 71.50 314.81 67.80 320.17 C 64.82 317.72 64.27 313.64 63.12 310.18 C 65.15 305.00 69.12 300.39 69.36 294.67 C 65.77 293.84 62.50 295.57 60.55 298.57 C 57.38 295.98 57.24 291.49 56.87 287.74 C 63.44 290.55 70.20 287.03 76.60 285.37 Z" />
<path fill="#050505" d=" M 382.93 283.85 C 384.31 282.79 386.05 280.77 387.91 282.08 C 392.16 283.29 388.50 289.94 384.90 288.25 C 382.87 287.88 383.42 285.29 382.93 283.85 Z" />
<path fill="#010101" d=" M 93.54 284.76 C 94.96 284.44 96.37 283.96 97.83 283.95 C 98.51 284.73 99.12 285.58 99.73 286.42 C 98.94 287.71 98.14 289.01 97.30 290.29 C 96.63 290.04 95.29 289.54 94.62 289.29 C 94.21 287.79 93.85 286.27 93.54 284.76 Z" />
<path fill="#020202" d=" M 382.06 291.20 C 383.81 290.04 385.62 291.23 387.25 291.96 C 387.46 294.79 384.98 297.62 382.04 296.95 C 379.52 296.02 379.61 292.14 382.06 291.20 Z" />
<path fill="#060606" d=" M 98.32 293.31 C 101.39 291.51 104.73 296.83 101.75 298.84 C 98.42 301.60 94.42 295.21 98.32 293.31 Z" />
<path fill="#fdfdfd" d=" M 242.10 293.76 C 244.83 297.39 243.02 301.91 242.81 305.98 C 242.71 310.71 241.73 315.37 241.69 320.11 C 241.67 324.37 240.43 328.81 242.09 332.90 C 244.22 332.59 246.30 332.03 248.39 331.51 C 248.92 332.45 249.44 333.41 249.95 334.38 C 248.75 336.22 247.54 338.06 246.38 339.92 C 247.99 341.12 249.46 343.58 251.79 342.92 C 255.23 341.81 258.25 339.12 262.08 339.46 C 263.66 341.23 261.99 343.28 260.78 344.70 C 258.54 347.57 254.38 346.02 251.52 347.63 C 249.35 349.49 249.44 353.68 252.16 355.03 C 254.88 356.74 258.95 355.70 261.00 358.51 C 259.96 360.27 257.58 360.24 255.83 359.79 C 252.21 358.90 249.42 356.14 245.92 354.98 C 244.46 354.34 242.59 355.21 242.59 356.93 C 242.12 360.03 243.69 362.94 243.99 365.98 C 243.42 370.79 236.04 372.92 233.33 368.63 C 231.71 364.73 233.92 360.15 231.12 356.55 C 227.98 358.36 224.93 361.00 221.06 360.72 C 219.49 360.58 216.84 359.34 218.42 357.50 C 222.29 355.91 228.10 355.20 228.62 349.99 C 226.35 344.78 217.50 347.43 216.86 341.04 C 219.98 342.01 222.72 344.20 226.10 344.21 C 227.57 344.39 229.47 344.21 230.28 345.78 C 231.67 347.41 230.86 349.68 230.67 351.56 C 232.21 352.19 234.06 352.29 235.32 353.46 C 236.06 355.47 235.25 357.62 235.28 359.69 C 236.21 359.59 238.07 359.38 238.99 359.27 C 240.28 357.55 239.75 355.17 240.29 353.19 C 241.86 350.25 246.70 351.56 247.60 348.13 C 247.00 346.02 245.43 344.43 244.23 342.67 C 242.62 341.07 244.42 338.38 243.22 336.76 C 239.55 334.85 234.74 336.05 231.74 338.71 C 229.62 336.66 225.23 334.80 226.26 331.27 C 229.97 330.01 232.32 336.09 235.74 333.72 C 237.36 332.22 236.46 329.76 236.77 327.84 C 236.65 325.54 239.41 324.29 239.42 322.04 C 240.18 312.60 240.89 303.15 242.10 293.76 Z" />
<path fill="#070707" d=" M 379.11 300.26 C 381.07 299.13 384.03 300.37 383.09 302.93 C 382.90 305.41 379.98 305.45 378.23 306.28 C 377.51 306.88 376.25 306.26 376.56 305.30 C 377.06 303.45 376.52 300.53 379.11 300.26 Z" />
<path fill="#050505" d=" M 101.31 307.53 C 100.32 305.27 100.74 302.78 103.35 302.02 C 104.99 302.95 107.77 304.87 106.09 306.98 C 105.12 308.82 102.87 307.57 101.31 307.53 Z" />
<path fill="#000000" d=" M 514.70 302.04 C 530.47 301.94 546.23 301.98 562.00 302.02 C 575.66 302.17 590.06 306.08 599.82 316.13 C 610.53 326.66 614.29 342.30 614.01 356.91 C 613.85 371.13 610.03 386.28 599.49 396.43 C 590.00 406.05 576.10 409.71 562.94 410.00 C 546.86 409.99 530.78 410.08 514.71 409.96 C 514.78 373.99 514.79 338.01 514.70 302.04 Z" />
<path fill="#000000" d=" M 629.26 302.05 C 638.68 301.94 648.10 301.97 657.52 302.03 C 657.45 338.01 657.47 374.00 657.51 409.99 C 648.09 410.01 638.67 410.07 629.26 409.95 C 629.24 373.98 629.24 338.02 629.26 302.05 Z" />
<path fill="#000000" d=" M 728.23 301.99 C 737.65 301.97 747.09 301.99 756.52 302.01 C 756.50 323.34 756.51 344.68 756.51 366.02 C 756.67 371.53 756.94 377.60 760.54 382.11 C 763.69 386.19 769.09 387.70 774.05 387.77 C 778.94 387.96 784.23 387.31 788.19 384.17 C 792.55 380.47 793.98 374.51 794.01 369.01 C 794.02 346.66 793.95 324.31 794.04 301.96 C 803.45 302.03 812.86 301.99 822.27 301.96 C 822.19 324.65 822.29 347.33 822.23 370.02 C 821.80 381.77 818.45 394.38 809.22 402.33 C 799.90 410.42 786.93 412.22 775.01 412.27 C 762.71 412.15 749.16 410.09 740.07 401.01 C 732.74 394.00 729.72 383.80 728.76 373.96 C 728.03 364.34 728.29 354.68 728.25 345.04 C 728.23 330.69 728.28 316.34 728.23 301.99 Z" />
<path fill="#000000" d=" M 841.02 302.02 C 857.04 302.01 873.06 301.91 889.08 302.05 C 902.41 302.29 916.30 306.33 925.89 315.99 C 935.50 325.33 939.62 338.95 940.13 352.06 C 940.75 367.21 937.70 383.58 927.09 395.04 C 917.74 405.30 903.60 409.64 890.05 409.96 C 873.71 410.13 857.37 409.88 841.04 410.07 C 840.97 374.06 840.99 338.04 841.02 302.02 Z" />
<path fill="#000000" d=" M 955.48 302.00 C 964.91 302.00 974.34 301.96 983.77 301.99 C 983.74 338.00 983.74 374.00 983.77 410.01 C 974.34 410.04 964.91 409.99 955.48 410.00 C 955.49 374.00 955.50 338.00 955.48 302.00 Z" />
<path fill="#000000" d=" M 1002.49 302.04 C 1012.26 301.96 1022.04 301.94 1031.81 302.07 C 1044.13 324.22 1056.74 346.21 1069.23 368.27 C 1069.30 346.16 1069.18 324.05 1069.28 301.94 C 1078.18 302.05 1087.09 301.96 1096.00 301.99 C 1096.00 338.00 1096.00 374.00 1096.00 410.01 C 1086.29 410.02 1076.59 409.98 1066.89 410.05 C 1054.40 387.61 1041.78 365.24 1029.29 342.80 C 1029.22 365.21 1029.22 387.63 1029.29 410.05 C 1020.35 409.96 1011.42 410.08 1002.49 409.96 C 1002.52 373.99 1002.52 338.01 1002.49 302.04 Z" />
<path fill="#000000" d=" M 1114.95 302.02 C 1143.65 301.94 1172.34 302.02 1201.04 301.98 C 1200.92 309.55 1201.07 317.14 1200.96 324.72 C 1181.72 324.78 1162.49 324.79 1143.25 324.71 C 1143.26 330.91 1143.23 337.10 1143.28 343.29 C 1160.85 343.22 1178.42 343.30 1195.99 343.24 C 1196.03 350.59 1195.94 357.94 1196.03 365.29 C 1178.43 365.23 1160.83 365.21 1143.23 365.30 C 1143.26 372.03 1143.26 378.77 1143.25 385.51 C 1163.00 385.46 1182.75 385.56 1202.50 385.46 C 1202.52 393.62 1202.49 401.79 1202.53 409.95 C 1173.33 410.06 1144.14 410.02 1114.95 409.97 C 1115.03 373.99 1115.03 338.00 1114.95 302.02 Z" />
<path fill="#050505" d=" M 372.79 314.20 C 372.31 311.94 372.37 308.71 375.15 308.06 C 377.16 307.20 378.11 309.42 379.33 310.53 C 378.54 313.54 375.65 314.63 372.79 314.20 Z" />
<path fill="#060606" d=" M 106.17 310.93 C 109.75 309.55 112.61 315.25 108.91 316.87 C 105.28 318.23 102.82 312.83 106.17 310.93 Z" />
<path fill="#030303" d=" M 393.89 316.70 C 396.55 317.42 398.96 316.31 401.10 314.78 C 402.58 314.96 404.08 315.14 405.57 315.35 C 405.04 316.84 404.26 318.35 404.52 319.98 C 404.73 322.33 407.83 323.63 407.40 326.11 C 406.03 328.16 403.46 327.16 401.43 327.49 C 399.69 328.23 398.52 329.83 396.97 330.86 C 395.27 331.30 394.22 330.03 393.26 328.89 C 393.61 327.28 394.04 325.68 394.24 324.04 C 393.51 322.80 392.41 321.86 391.41 320.87 C 391.03 319.13 391.47 316.18 393.89 316.70 Z" />
<path fill="#040404" d=" M 367.72 320.92 C 367.27 317.35 371.55 315.98 374.34 317.14 C 375.57 319.47 374.52 321.57 372.71 323.20 C 370.99 322.93 367.80 323.41 367.72 320.92 Z" />
<path fill="#030303" d=" M 109.76 323.28 C 108.66 321.36 110.48 319.80 111.63 318.48 C 112.37 318.77 113.85 319.35 114.58 319.65 C 115.35 321.16 115.66 322.81 115.64 324.50 C 113.66 324.83 110.83 325.61 109.76 323.28 Z" />
<path fill="#020202" d=" M 81.39 326.42 C 86.85 323.28 93.50 319.23 99.91 321.94 C 106.90 324.48 110.94 334.60 105.42 340.44 C 101.55 344.30 96.71 347.00 92.36 350.26 C 90.34 351.67 89.98 354.23 89.19 356.39 C 85.39 354.78 84.56 350.09 82.59 346.84 C 89.54 347.24 95.04 342.06 100.14 338.04 C 104.74 334.34 100.64 326.11 95.04 326.77 C 89.90 326.89 85.19 329.23 81.17 332.26 C 79.39 333.60 79.15 336.00 78.31 337.92 C 74.48 336.18 73.48 331.77 72.08 328.19 C 75.27 328.31 78.70 328.44 81.39 326.42 Z" />
<path fill="#040404" d=" M 363.39 326.58 C 364.81 325.58 367.37 325.15 368.13 327.16 C 369.82 329.62 366.59 332.49 364.08 331.75 C 361.42 331.55 361.41 327.72 363.39 326.58 Z" />
<path fill="#FFFFFF" d=" M 869.23 326.50 C 880.06 326.72 892.03 325.02 901.54 331.46 C 910.51 337.37 912.61 349.13 911.88 359.13 C 911.56 367.24 909.23 376.45 901.83 380.95 C 892.07 386.95 880.13 385.25 869.23 385.49 C 869.25 365.83 869.25 346.17 869.23 326.50 Z" />
<path fill="#010101" d=" M 115.96 326.55 C 118.75 326.54 120.54 328.69 120.71 331.33 C 120.28 331.82 119.42 332.79 118.99 333.27 C 116.45 333.06 114.85 331.44 114.24 329.05 C 114.81 328.21 115.39 327.38 115.96 326.55 Z" />
<path fill="#FFFFFF" d=" M 543.00 326.51 C 553.67 326.74 565.38 325.03 574.87 331.14 C 583.18 336.30 585.99 346.74 585.78 355.99 C 585.76 364.94 584.06 375.40 575.99 380.73 C 566.18 386.99 554.04 385.25 542.99 385.49 C 543.00 365.83 543.00 346.17 543.00 326.51 Z" />
<path fill="#050505" d=" M 121.30 334.32 C 124.30 333.58 127.33 336.66 126.15 339.65 C 125.21 340.03 124.27 340.41 123.33 340.80 C 121.12 339.65 118.72 336.36 121.30 334.32 Z" />
<path fill="#020202" d=" M 358.41 334.59 C 360.11 333.30 363.28 333.82 363.67 336.15 C 364.28 338.94 359.89 341.09 358.04 338.97 C 356.68 337.97 356.92 335.35 358.41 334.59 Z" />
<path fill="#010101" d=" M 365.96 350.03 C 363.73 340.79 375.11 333.46 383.08 337.41 C 389.37 338.75 393.35 345.35 400.07 345.22 C 401.53 344.82 402.91 346.42 401.99 347.78 C 400.55 350.87 398.23 353.56 395.37 355.43 C 394.09 349.75 389.02 346.49 384.43 343.58 C 381.79 342.31 378.26 340.39 375.64 342.69 C 372.66 344.67 372.01 349.05 373.89 352.00 C 376.21 355.67 379.95 358.12 383.53 360.43 C 385.60 362.04 388.32 361.72 390.75 362.19 C 389.25 365.05 387.55 368.08 384.88 369.99 C 383.36 371.38 382.51 369.30 381.87 368.30 C 377.61 361.36 368.64 358.10 365.96 350.03 Z" />
<path fill="#030303" d=" M 351.59 341.47 C 353.49 341.03 355.42 340.76 357.36 340.62 C 357.20 342.41 358.24 345.09 356.16 346.05 C 354.52 347.11 352.41 347.03 350.74 346.10 C 350.56 344.49 351.16 342.98 351.59 341.47 Z" />
<path fill="#fefefe" d=" M 232.39 341.02 C 232.86 341.07 233.81 341.18 234.28 341.23 C 234.39 341.96 234.59 343.42 234.70 344.15 C 233.27 345.11 232.12 344.40 231.16 343.21 C 231.46 342.66 232.08 341.57 232.39 341.02 Z" />
<path fill="#010101" d=" M 127.45 341.92 C 130.33 341.15 132.14 343.15 132.74 345.74 C 131.65 347.69 129.76 347.97 127.74 347.52 C 127.13 346.40 126.53 345.28 125.97 344.15 C 126.34 343.59 127.08 342.48 127.45 341.92 Z" />
<path fill="#010101" d=" M 346.57 347.27 C 347.70 347.54 348.86 347.77 349.96 348.22 C 350.93 349.48 349.87 351.04 349.66 352.38 C 347.67 353.26 344.89 354.91 343.20 352.64 C 342.77 350.12 344.73 348.53 346.57 347.27 Z" />
<path fill="#020202" d=" M 134.35 348.84 C 135.49 348.92 136.62 349.10 137.72 349.38 C 139.46 350.60 138.88 352.96 139.04 354.76 C 141.72 355.08 145.09 355.90 145.60 359.05 C 146.62 361.98 142.20 362.74 140.46 361.43 C 137.80 359.90 138.35 355.78 135.25 354.76 C 133.56 354.22 132.99 352.66 132.55 351.10 C 133.00 350.54 133.90 349.41 134.35 348.84 Z" />
<path fill="#040404" d=" M 336.46 358.06 C 337.02 355.19 340.45 353.25 342.92 355.17 C 343.53 356.83 342.91 358.51 342.53 360.15 C 341.31 360.57 340.11 361.02 338.90 361.44 C 338.07 360.32 337.26 359.19 336.46 358.06 Z" />
<path fill="#020202" d=" M 105.77 354.28 C 108.35 354.30 110.44 355.97 112.87 356.47 C 115.09 356.05 118.40 354.68 119.65 357.49 C 119.94 359.79 118.11 361.75 117.94 364.03 C 118.18 366.44 120.54 368.59 119.19 371.06 C 117.34 372.33 115.39 370.78 113.77 369.91 C 110.99 367.72 107.16 371.03 104.38 368.64 C 102.93 367.30 104.60 365.69 105.21 364.42 C 107.90 361.31 103.52 357.64 105.77 354.28 Z" />
<path fill="#010101" d=" M 329.36 365.71 C 327.94 362.84 331.39 360.52 333.85 359.93 C 334.45 360.60 335.65 361.94 336.25 362.61 C 335.45 365.53 332.15 367.87 329.36 365.71 Z" />
<path fill="#040404" d=" M 146.48 362.53 C 148.88 360.84 152.11 363.17 152.01 365.87 C 151.46 366.71 150.87 367.52 150.24 368.32 C 149.02 367.63 147.81 366.94 146.58 366.27 C 146.43 365.03 146.10 363.75 146.48 362.53 Z" />
<path fill="#020202" d=" M 342.02 368.10 C 344.79 366.08 347.20 362.60 350.98 362.76 C 350.89 365.39 349.86 368.20 351.19 370.69 C 352.46 374.21 355.40 376.66 357.61 379.56 C 358.79 381.03 359.98 382.82 362.01 383.12 C 364.51 382.16 366.54 380.19 368.29 378.22 C 368.97 376.48 369.00 374.56 369.34 372.75 C 372.79 373.16 374.51 376.34 375.93 379.13 C 367.70 385.89 359.90 393.22 351.06 399.21 C 347.80 399.43 346.62 395.59 345.45 393.21 C 349.58 393.50 354.70 391.41 355.60 386.97 C 353.77 382.85 350.02 379.95 347.69 376.11 C 345.88 373.08 342.37 372.25 339.18 371.61 C 339.03 369.87 341.03 369.19 342.02 368.10 Z" />
<path fill="#060606" d=" M 320.84 368.98 C 322.73 366.80 325.49 365.97 328.26 366.80 C 328.05 369.02 327.53 372.01 324.88 372.49 C 322.63 373.22 321.98 370.28 320.84 368.98 Z" />
<path fill="#010101" d=" M 154.69 372.31 C 154.16 370.71 153.64 369.11 153.36 367.46 C 155.93 367.66 159.31 367.72 160.49 370.53 C 160.16 373.46 156.74 373.13 154.69 372.31 Z" />
<path fill="#010101" d=" M 313.06 373.54 C 315.28 371.72 318.18 370.88 320.83 372.35 C 320.10 374.48 319.17 378.21 316.12 377.50 C 314.05 377.46 313.34 375.22 313.06 373.54 Z" />
<path fill="#010101" d=" M 131.82 386.11 C 128.28 380.83 132.67 372.53 138.99 372.36 C 142.75 372.55 146.83 373.70 149.21 376.82 C 150.61 378.46 151.49 380.50 153.02 382.04 C 154.65 382.46 156.40 382.55 157.95 383.32 C 156.00 386.42 152.35 388.09 149.16 389.71 C 148.43 385.22 145.70 380.56 140.94 379.61 C 138.11 378.98 136.18 382.57 136.89 385.00 C 137.94 390.04 142.90 392.99 144.24 397.86 C 144.92 404.29 136.36 407.49 131.58 404.26 C 128.38 402.71 127.17 399.25 126.09 396.13 C 125.36 393.70 122.83 392.54 121.64 390.42 C 120.89 389.29 122.26 388.77 123.01 388.24 C 124.60 387.23 126.37 386.56 128.12 385.90 C 130.09 389.98 129.65 396.87 135.31 397.69 C 137.96 393.35 133.68 389.70 131.82 386.11 Z" />
<path fill="#090909" d=" M 161.82 372.84 C 163.65 372.76 165.94 371.96 167.32 373.66 C 169.07 374.92 167.06 377.05 166.08 378.13 C 163.06 378.48 161.62 375.40 161.82 372.84 Z" />
<path fill="#020202" d=" M 304.52 381.10 C 305.02 378.82 306.24 376.05 309.03 376.22 C 311.60 375.99 312.11 379.02 312.25 380.96 C 309.90 382.78 306.91 382.91 304.52 381.10 Z" />
<path fill="#020202" d=" M 168.30 378.69 C 170.36 375.69 174.87 377.00 176.17 380.02 C 176.15 382.03 173.86 383.37 172.07 382.60 C 170.22 382.06 169.43 380.05 168.30 378.69 Z" />
<path fill="#050505" d=" M 299.72 380.77 C 301.74 380.18 303.59 382.15 304.02 383.93 C 303.68 386.98 298.23 388.10 297.07 384.99 C 295.73 383.02 298.03 381.31 299.72 380.77 Z" />
<path fill="#010101" d=" M 316.67 386.47 C 320.06 383.53 324.08 381.17 328.49 380.24 C 328.45 382.10 328.28 383.96 328.04 385.81 C 330.31 391.04 332.92 396.18 336.51 400.64 C 337.90 402.42 340.36 402.60 342.35 403.35 C 342.34 404.42 342.89 405.83 341.52 406.30 C 338.22 408.17 334.85 411.41 330.78 410.53 C 330.69 408.17 331.00 405.64 329.76 403.51 C 327.48 399.08 325.18 394.63 322.50 390.43 C 321.30 388.20 318.78 387.50 316.67 386.47 Z" />
<path fill="#050505" d=" M 178.08 383.91 C 176.68 381.97 179.45 380.84 180.98 380.95 C 182.61 380.81 183.83 381.97 184.99 382.92 C 184.82 383.62 184.47 385.02 184.30 385.72 C 182.13 386.07 179.11 386.39 178.08 383.91 Z" />
<path fill="#030303" d=" M 187.11 385.10 C 188.75 383.42 191.05 383.95 192.88 384.96 C 191.98 386.40 191.29 388.05 190.00 389.22 C 187.95 389.11 186.62 387.03 187.11 385.10 Z" />
<path fill="#030303" d=" M 287.95 385.13 C 290.30 383.57 294.51 382.51 295.40 386.25 C 295.14 389.39 291.99 390.00 289.44 390.21 C 288.87 389.60 287.72 388.38 287.15 387.76 C 287.35 387.11 287.75 385.79 287.95 385.13 Z" />
<path fill="#010101" d=" M 162.24 385.88 C 166.71 386.72 170.45 389.59 174.27 391.90 C 171.39 393.36 168.64 395.17 167.22 398.20 C 167.67 398.17 168.57 398.09 169.03 398.05 C 168.58 398.17 167.69 398.41 167.24 398.53 C 165.53 401.18 164.02 403.96 162.46 406.69 C 160.82 409.68 161.47 413.17 162.09 416.34 C 160.47 416.41 158.74 416.65 157.36 415.59 C 154.92 414.05 151.75 413.15 150.47 410.33 C 152.55 409.25 155.20 408.64 156.37 406.39 C 159.06 402.12 161.78 397.81 163.59 393.09 C 164.51 390.62 162.62 388.27 162.24 385.88 Z" />
<path fill="#030303" d=" M 194.82 390.99 C 195.27 389.04 196.45 386.02 199.04 387.11 C 201.46 387.46 202.22 389.73 202.19 391.89 C 199.66 393.60 196.90 393.10 194.82 390.99 Z" />
<path fill="#030303" d=" M 280.17 392.75 C 278.44 391.26 278.45 388.04 280.95 387.44 C 283.04 386.08 284.99 387.98 286.80 388.89 C 286.43 392.17 283.05 393.37 280.17 392.75 Z" />
<path fill="#030303" d=" M 269.45 391.89 C 270.74 389.47 273.35 388.98 275.86 389.10 C 276.39 390.44 276.87 391.80 277.33 393.18 C 275.40 394.49 273.17 395.25 270.85 394.56 C 270.50 393.89 269.80 392.56 269.45 391.89 Z" />
<path fill="#020202" d=" M 203.56 391.99 C 204.45 388.99 208.34 389.82 210.66 390.40 C 210.63 391.82 210.63 393.25 210.43 394.67 C 207.90 395.95 204.54 394.66 203.56 391.99 Z" />
<path fill="#000000" d=" M 259.11 393.14 C 260.62 392.30 262.03 390.63 263.93 391.00 C 266.18 390.90 266.61 393.51 267.37 395.04 C 265.18 396.91 262.10 397.26 259.54 395.95 C 259.44 395.25 259.22 393.84 259.11 393.14 Z" />
<path fill="#020202" d=" M 299.03 395.03 C 302.07 392.93 305.42 391.21 309.08 390.47 C 307.62 397.35 311.98 403.40 314.56 409.44 C 315.75 412.70 318.46 414.81 321.23 416.69 C 317.30 418.84 312.58 422.76 308.01 420.01 C 303.72 418.46 299.80 415.02 295.09 415.16 C 293.76 419.44 296.14 423.67 299.59 426.11 C 295.92 427.55 292.01 428.99 288.00 428.59 C 289.58 424.68 288.70 420.59 287.18 416.81 C 285.04 411.35 284.59 404.50 279.13 401.13 C 282.12 399.16 285.73 398.50 289.16 397.68 C 290.38 397.23 291.58 397.75 292.72 398.17 C 291.96 400.09 290.04 401.87 290.47 404.07 C 293.15 408.14 298.05 409.82 302.20 411.95 C 304.11 412.59 308.36 414.76 308.07 411.09 C 306.30 405.19 304.31 398.76 299.03 395.03 Z" />
<path fill="#010101" d=" M 212.99 393.78 C 212.96 390.68 217.43 391.76 219.46 391.62 C 219.79 393.09 220.10 394.57 220.29 396.08 C 217.58 397.23 214.29 396.72 212.99 393.78 Z" />
<path fill="#030303" d=" M 240.60 395.17 C 242.13 392.62 244.93 392.38 247.58 392.93 C 247.55 394.36 247.51 395.81 247.46 397.25 C 244.84 398.24 242.14 397.60 240.60 395.17 Z" />
<path fill="#010101" d=" M 251.24 392.89 C 252.74 392.51 254.27 392.09 255.84 392.27 C 256.89 393.90 256.95 395.88 256.76 397.76 C 254.99 397.73 253.22 397.64 251.46 397.48 C 251.34 395.95 251.27 394.41 251.24 392.89 Z" />
<path fill="#010101" d=" M 222.73 393.53 C 224.69 393.28 226.75 392.66 228.68 393.42 C 229.85 394.52 230.54 397.84 228.19 397.77 C 225.93 398.64 223.93 397.06 222.13 395.96 C 222.28 395.35 222.58 394.14 222.73 393.53 Z" />
<path fill="#060606" d=" M 232.90 396.08 C 231.79 393.36 235.82 392.82 237.56 393.61 C 239.65 394.12 239.12 396.45 239.26 398.06 C 237.14 398.08 233.36 399.09 232.90 396.08 Z" />
<path fill="#020202" d=" M 179.86 396.94 C 182.82 394.92 186.67 395.70 189.91 396.47 C 195.00 397.82 198.72 403.00 204.41 401.87 C 202.97 404.28 201.88 407.41 199.02 408.49 C 195.76 406.37 193.32 402.57 188.95 402.72 C 185.98 402.04 184.58 405.79 185.93 407.98 C 188.90 412.70 195.59 413.69 198.02 418.90 C 200.13 422.75 197.01 427.99 192.74 428.42 C 186.67 429.25 180.96 425.99 176.48 422.21 C 174.58 420.36 171.73 421.42 169.39 421.13 C 170.33 418.51 172.82 415.30 175.91 415.94 C 179.21 418.92 182.37 422.97 187.35 422.63 C 187.75 421.19 189.13 419.62 188.16 418.13 C 185.62 412.79 178.06 411.71 176.70 405.61 C 175.42 402.43 176.95 398.61 179.86 396.94 Z" />
<path fill="#010101" d=" M 209.67 402.37 C 213.86 402.76 218.01 403.58 222.01 404.86 C 220.61 407.07 218.24 409.68 219.68 412.46 C 221.42 415.80 223.85 418.78 226.45 421.48 C 227.51 422.28 229.37 424.36 230.52 422.60 C 232.49 417.16 232.64 410.48 228.82 405.77 C 229.12 405.55 229.72 405.13 230.03 404.91 C 233.76 404.81 237.47 405.46 241.16 405.95 C 239.56 408.60 237.70 411.26 237.68 414.49 C 237.52 419.82 236.27 425.24 237.62 430.51 C 238.39 432.34 240.01 433.63 241.20 435.17 C 237.45 435.51 233.40 435.75 229.90 434.15 C 225.86 430.49 223.48 425.12 218.91 421.99 C 217.00 421.64 216.79 423.72 216.37 425.05 C 215.36 427.69 216.93 430.22 217.63 432.72 C 213.22 432.44 208.78 432.04 204.50 430.90 C 206.14 428.74 208.99 427.11 208.87 424.05 C 209.32 416.84 212.12 409.48 209.67 402.37 Z" />
<path fill="#020202" d=" M 248.51 405.52 C 256.29 404.80 264.04 403.29 271.86 403.30 L 273.07 403.97 C 270.92 410.88 272.77 418.02 274.04 424.91 C 274.64 427.46 276.61 429.35 277.93 431.54 C 273.67 432.80 269.17 432.85 264.80 433.56 C 259.70 433.97 254.62 435.53 249.48 434.64 C 249.13 432.40 248.69 430.12 249.19 427.87 C 252.12 427.97 254.01 431.27 257.04 430.86 C 260.58 430.26 265.11 430.82 267.58 427.68 C 268.62 424.97 267.81 419.75 263.87 420.55 C 262.16 422.19 261.01 424.40 258.87 425.57 C 256.86 422.01 255.77 417.22 257.42 413.45 C 260.11 411.30 260.79 416.85 263.48 416.28 C 266.74 415.88 266.27 411.23 264.75 409.29 C 260.97 407.90 256.78 409.10 253.02 410.09 C 251.37 411.43 250.40 413.50 248.46 414.53 C 247.75 411.55 247.41 408.44 248.51 405.52 Z" />
</svg>
